<svg width="319" height="294" viewBox="0 0 319 294" fill="none" xmlns="http://www.w3.org/2000/svg">
<path d="M158.88 113.691C150.425 103.909 137.391 101.316 129.768 107.899C122.146 114.482 122.821 127.748 131.276 137.53C139.731 147.312 152.765 149.905 160.388 143.322C168.01 136.739 167.335 123.473 158.88 113.691Z" stroke="#565656" stroke-width="0.75" stroke-miterlimit="10" stroke-linecap="round" stroke-linejoin="round"/>
<path d="M160.785 191.735C160.236 190.929 159.74 190.126 159.3 189.293" stroke="#565656" stroke-width="0.75" stroke-miterlimit="10" stroke-linecap="round" stroke-linejoin="round"/>
<path d="M187.291 201.175C185.763 201.887 184.135 202.349 182.445 202.555" stroke="#565656" stroke-width="0.75" stroke-miterlimit="10" stroke-linecap="round" stroke-linejoin="round"/>
<path d="M195.709 191.05C194.878 194.072 193.259 196.788 190.842 198.871" stroke="#565656" stroke-width="0.75" stroke-miterlimit="10" stroke-linecap="round" stroke-linejoin="round"/>
<path d="M173.022 72.5334C183.214 78.4698 187.365 90.3319 182.299 99.0357C177.233 107.74 164.874 109.978 154.682 104.041C144.49 98.1048 140.339 86.2428 145.406 77.5389C150.472 68.8351 162.83 66.5971 173.022 72.5334Z" stroke="#565656" stroke-width="0.75" stroke-miterlimit="10" stroke-linecap="round" stroke-linejoin="round"/>
<path d="M184.009 205.113C177.863 193.74 165.693 188.397 156.827 193.18C147.962 197.962 145.758 211.059 151.905 222.432C158.052 233.805 170.222 239.148 179.087 234.365C187.952 229.583 190.156 216.486 184.009 205.113Z" stroke="#565656" stroke-width="0.75" stroke-miterlimit="10" stroke-linecap="round" stroke-linejoin="round"/>
<path d="M220.204 236.217C226.548 237.553 232.854 242.329 236.746 249.526C242.9 260.898 240.696 273.999 231.838 278.78C222.98 283.562 210.801 278.216 204.655 266.833C200.952 259.985 200.276 252.505 202.261 246.605" stroke="#565656" stroke-width="0.75" stroke-miterlimit="10" stroke-linecap="round" stroke-linejoin="round"/>
<path d="M186.219 210.356C187.303 208.985 188.611 207.794 190.14 206.835C198.697 201.517 210.889 205.651 217.364 216.07C223.859 226.486 222.185 239.247 213.628 244.565C205.071 249.883 192.879 245.749 186.395 235.342C185.349 233.662 184.52 231.927 183.894 230.18" stroke="#565656" stroke-width="0.75" stroke-miterlimit="10" stroke-linecap="round" stroke-linejoin="round"/>
<path d="M216.175 137.607C224.17 134.817 233.574 138.182 238.54 146.142C244.224 155.261 241.904 166.986 233.355 172.293C229.343 174.792 224.658 175.439 220.239 174.476" stroke="#565656" stroke-width="0.75" stroke-miterlimit="10" stroke-linecap="round" stroke-linejoin="round"/>
<path d="M204.527 153.101C204.749 150.308 205.564 147.627 206.939 145.246" stroke="#565656" stroke-width="0.75" stroke-miterlimit="10" stroke-linecap="round" stroke-linejoin="round"/>
<path d="M116.726 189.536C116.423 189.758 116.108 189.971 115.79 190.165C107.233 195.483 95.699 192.394 90.0037 183.267C84.32 174.148 86.6402 162.423 95.189 157.116C96.1962 156.485 97.254 155.98 98.3277 155.575" stroke="#565656" stroke-width="0.75" stroke-miterlimit="10" stroke-linecap="round" stroke-linejoin="round"/>
<path d="M123.343 169.361C123.941 171.512 124.176 173.7 124.066 175.849" stroke="#565656" stroke-width="0.75" stroke-miterlimit="10" stroke-linecap="round" stroke-linejoin="round"/>
<path d="M171.746 236.127C170.54 237.763 169.027 239.211 167.197 240.341C159.096 245.372 148.184 242.45 142.791 233.809C139.335 228.254 139 221.695 141.363 216.37" stroke="#565656" stroke-width="0.75" stroke-miterlimit="10" stroke-linecap="round" stroke-linejoin="round"/>
<path d="M234.36 214.832C237.951 216.398 241.156 219.08 243.44 222.738C249.123 231.857 246.803 243.582 238.254 248.889C237.789 249.188 237.318 249.447 236.831 249.677" stroke="#565656" stroke-width="0.75" stroke-miterlimit="10" stroke-linecap="round" stroke-linejoin="round"/>
<path d="M190.719 154.143C199.203 149.461 210.642 153.243 216.639 162.855C222.805 172.749 220.87 185.09 212.313 190.408C203.755 195.726 191.825 192.012 185.659 182.119C183.111 178.02 181.943 173.51 182.057 169.258" stroke="#565656" stroke-width="0.75" stroke-miterlimit="10" stroke-linecap="round" stroke-linejoin="round"/>
<path d="M203.142 263.627C194.638 268.506 183.28 265.102 177.503 255.844C173.4 249.254 173.206 241.452 176.353 235.512" stroke="#565656" stroke-width="0.75" stroke-miterlimit="10" stroke-linecap="round" stroke-linejoin="round"/>
<path d="M220.068 177.855C226.323 178.436 232.603 182.274 236.564 188.619C242.774 198.598 240.889 210.993 232.343 216.32C228.172 218.916 223.185 219.344 218.451 217.939" stroke="#565656" stroke-width="0.75" stroke-miterlimit="10" stroke-linecap="round" stroke-linejoin="round"/>
<path d="M204.269 205.476C202.273 201.301 201.576 196.849 202.096 192.769" stroke="#565656" stroke-width="0.75" stroke-miterlimit="10" stroke-linecap="round" stroke-linejoin="round"/>
<path d="M181.391 133.973C175.568 124.169 177.067 112.184 185.162 106.406C193.792 100.256 206.645 103.455 213.872 113.571C221.098 123.686 219.964 136.875 211.334 143.025C204.316 148.028 194.531 146.846 187.222 140.793" stroke="#565656" stroke-width="0.75" stroke-miterlimit="10" stroke-linecap="round" stroke-linejoin="round"/>
<path d="M133.617 139.937C138.87 149.574 137.228 161.049 129.363 166.658C120.733 172.808 107.879 169.609 100.653 159.493C93.4267 149.377 94.5608 136.189 103.191 130.039C110.401 124.892 120.571 126.301 127.93 132.797" stroke="#565656" stroke-width="0.75" stroke-miterlimit="10" stroke-linecap="round" stroke-linejoin="round"/>
<path d="M148.661 212.686C146.894 214.216 144.824 215.383 142.494 216.079C132.342 219.106 121.214 211.924 117.65 200.01C114.077 188.108 119.422 175.997 129.594 172.967C129.771 172.918 129.948 172.87 130.124 172.821" stroke="#565656" stroke-width="0.75" stroke-miterlimit="10" stroke-linecap="round" stroke-linejoin="round"/>
<path d="M154.821 190.482C155.103 191.678 155.302 192.867 155.418 194.048" stroke="#565656" stroke-width="0.75" stroke-miterlimit="10" stroke-linecap="round" stroke-linejoin="round"/>
<path d="M136.646 150.684C145.266 144.792 157.931 148.031 165.078 158.036C172.305 168.152 171.17 181.34 162.54 187.49C153.91 193.64 141.057 190.441 133.83 180.325C130.825 176.125 129.273 171.387 129.096 166.853" stroke="#565656" stroke-width="0.75" stroke-miterlimit="10" stroke-linecap="round" stroke-linejoin="round"/>
<path d="M96.5979 150.762C87.5828 153.006 77.6265 147.842 73.3355 138.196C68.5696 127.497 72.5532 115.335 82.2466 111.037C91.9284 106.73 103.65 111.902 108.416 122.601C109.087 124.115 109.589 125.666 109.926 127.202" stroke="#565656" stroke-width="0.75" stroke-miterlimit="10" stroke-linecap="round" stroke-linejoin="round"/>
<path d="M165.604 128.695C172.882 128.038 180.841 131.733 185.982 138.918C193.208 149.033 192.074 162.222 183.444 168.372C179.474 171.203 174.606 172.053 169.799 171.161" stroke="#565656" stroke-width="0.75" stroke-miterlimit="10" stroke-linecap="round" stroke-linejoin="round"/>
<path d="M184.06 87.1527C185.184 85.7042 186.524 84.3956 188.099 83.2756C196.73 77.1256 208.716 79.129 214.885 87.7509C220.386 95.4631 219.391 105.851 212.961 112.361" stroke="#565656" stroke-width="0.75" stroke-miterlimit="10" stroke-linecap="round" stroke-linejoin="round"/>
<path d="M182.677 108.582C181.423 106.432 180.625 104.118 180.273 101.775" stroke="#565656" stroke-width="0.75" stroke-miterlimit="10" stroke-linecap="round" stroke-linejoin="round"/>
<path d="M79.3502 112.684C75.0588 100.454 82.9485 70.0937 82.9485 70.0937C100.784 83.5476 117.059 98.8573 126.895 111.329" stroke="#565656" stroke-width="0.75" stroke-miterlimit="10" stroke-linecap="round" stroke-linejoin="round"/>
<path d="M131.584 106.58C115.35 85.6562 88.04 65.8144 88.04 65.8144C88.04 65.8144 107.657 75.7679 115.796 77.9482C129.707 81.6675 143.482 82.7941 143.482 82.7941" stroke="#565656" stroke-width="0.75" stroke-miterlimit="10" stroke-linecap="round" stroke-linejoin="round"/>
<path d="M145.395 77.5307C145.395 77.5307 130.38 76.0157 117.353 71.47C113.075 69.9719 86.0243 59.8898 80.4876 56.858C74.9393 53.8177 69.0648 49.8857 68.058 47.615C67.0512 45.3443 61.3 43.802 59.6634 51.2468C58.7218 55.5167 61.8508 53.7208 66.0586 56.7779C70.2664 59.835 73.2959 60.833 76.2761 65.2628C79.2563 69.6927 73.2089 92.9346 72.7613 100.571C72.3137 108.207 74.8056 117.307 74.8056 117.307" stroke="#565656" stroke-width="0.75" stroke-miterlimit="10" stroke-linecap="round" stroke-linejoin="round"/>
<path d="M91.4406 76.7393C91.4406 76.7393 99.4196 91.0111 100.933 95.4368C102.497 99.9877 104.557 116.629 104.557 116.629" stroke="#565656" stroke-width="0.75" stroke-miterlimit="10" stroke-linecap="round" stroke-linejoin="round"/>
<path d="M100.921 84.7251C100.921 84.7251 103.11 88.5623 105.781 93.5637C108.461 98.5537 107.618 120.994 107.618 120.994" stroke="#565656" stroke-width="0.75" stroke-miterlimit="10" stroke-linecap="round" stroke-linejoin="round"/>
<path d="M171.046 171.344C177.015 180.387 190.138 206.836 190.138 206.836" stroke="#565656" stroke-width="0.75" stroke-miterlimit="10" stroke-linecap="round" stroke-linejoin="round"/>
<path d="M193.795 205.192C188.584 192.913 175.766 171.357 175.766 171.357" stroke="#565656" stroke-width="0.75" stroke-miterlimit="10" stroke-linecap="round" stroke-linejoin="round"/>
<path d="M157.921 112.623C169.479 114.314 180.368 111.734 180.368 111.734" stroke="#565656" stroke-width="0.75" stroke-miterlimit="10" stroke-linecap="round" stroke-linejoin="round"/>
<path d="M162.082 118.158C171.035 118.559 178.436 116.612 178.436 116.612" stroke="#565656" stroke-width="0.75" stroke-miterlimit="10" stroke-linecap="round" stroke-linejoin="round"/>
</svg>
