<svg width="27" height="28" viewBox="0 0 27 28" fill="none" xmlns="http://www.w3.org/2000/svg">
<path d="M6.45804 16.5163C6.64228 15.8527 6.99529 15.2416 7.48879 14.748C8.1248 14.112 8.93084 13.7284 9.77155 13.6096C9.7074 12.8764 9.39257 12.1974 8.86248 11.6674C7.63442 10.4394 5.63614 10.4393 4.40808 11.6674C3.24613 12.8293 3.17236 14.6519 4.20617 15.8988C4.98798 15.8786 5.77412 16.0845 6.45804 16.5163Z" fill="#565656"/>
<path d="M8.10726 15.3658C7.62606 15.847 7.31533 16.4706 7.21875 17.1386C7.85952 17.8095 8.24901 18.6861 8.3213 19.6058C9.02623 19.6595 9.69451 19.8942 10.2719 20.2885C10.4585 19.6372 10.8081 19.0377 11.2936 18.5522C11.6481 18.1977 12.0557 17.9223 12.4924 17.7267C12.035 17.0501 11.7939 16.2506 11.8064 15.4188C11.8093 15.2216 11.8264 15.0266 11.8572 14.8349C10.6428 14.1618 9.107 14.366 8.10726 15.3658Z" fill="#565656"/>
<path d="M8.27364 10.2204C8.47462 9.70183 8.78251 9.2284 9.18041 8.83049C9.80609 8.20481 10.6017 7.81123 11.4631 7.69146C11.4308 7.32325 11.3354 6.96887 11.1809 6.64004C11.1777 6.63386 11.1747 6.62757 11.1717 6.62123C11.0195 6.30273 10.8127 6.00834 10.5541 5.74973C9.95916 5.15478 9.16822 4.82715 8.32691 4.82715C7.48559 4.82715 6.69465 5.15478 6.0997 5.74973C4.94793 6.9015 4.8653 8.70045 5.86963 9.94606C6.67337 9.79135 7.51512 9.88339 8.27364 10.2204Z" fill="#565656"/>
<path d="M9.04297 10.6691C9.19659 10.7837 9.34413 10.9102 9.48359 11.0496C10.1619 11.728 10.5737 12.6322 10.6486 13.5814C11.1455 13.6194 11.6381 13.7502 12.0996 13.9756C12.2995 13.4792 12.5983 13.0233 12.987 12.6346C13.5765 12.0452 14.3049 11.6773 15.0679 11.5308C15.0875 11.4175 15.1118 11.3052 15.1399 11.194C15.0385 10.5384 14.7318 9.92503 14.255 9.44821C13.6601 8.85327 12.8691 8.52563 12.0278 8.52563C11.1865 8.52563 10.3955 8.85327 9.80061 9.44821C9.45531 9.79362 9.19702 10.2114 9.04297 10.6691Z" fill="#565656"/>
<path d="M12.7805 14.675C12.7764 14.7089 12.7682 14.7425 12.756 14.7752C12.5452 15.6882 12.7493 16.6748 13.373 17.4484C14.2162 17.2848 15.1057 17.3907 15.9023 17.7798C16.1036 17.2804 16.4045 16.8239 16.7896 16.4387C17.406 15.8224 18.1743 15.4493 18.9751 15.3173C18.9351 14.5433 18.6112 13.8058 18.0577 13.2523C16.8296 12.0243 14.8314 12.0243 13.6033 13.2523C13.1931 13.6625 12.9188 14.1548 12.7805 14.675Z" fill="#565656"/>
<path d="M14.8717 8.83068C15.2008 9.15973 15.4652 9.54025 15.6604 9.95204C15.8466 9.64612 16.0685 9.36093 16.3245 9.10483C17.0604 8.36895 17.9889 7.94129 18.9493 7.8194C18.887 6.94604 18.5184 6.13622 17.8895 5.50737C16.4663 4.08413 14.1504 4.08413 12.7271 5.50737C12.4489 5.78557 12.2208 6.10122 12.0469 6.44729C12.2059 6.83409 12.3054 7.24507 12.3384 7.66518C13.2955 7.73813 14.1858 8.14473 14.8717 8.83068Z" fill="#565656"/>
<path d="M17.4078 17.0564C17.0676 17.3965 16.8111 17.8074 16.6562 18.2572C16.7704 18.3489 16.8804 18.4475 16.9851 18.5521C17.9117 19.4787 18.3213 20.7633 18.1121 22.0417C19.3267 22.715 20.8624 22.5106 21.8622 21.5108C21.8622 21.5108 21.8622 21.5108 21.8622 21.5108C23.0903 20.2827 23.0903 18.2844 21.8622 17.0564C20.6341 15.8283 18.6358 15.8282 17.4078 17.0564Z" fill="#565656"/>
<path d="M5.78389 21.3889C5.72002 21.4527 5.65975 21.5201 5.60156 21.5892C5.73817 21.6944 5.87013 21.8084 5.99526 21.9334C6.7552 22.6934 7.17366 23.7037 7.17366 24.7784C7.17366 25.3902 7.0376 25.981 6.78057 26.5167C7.94864 27.0138 9.31944 26.7622 10.2384 25.8433C11.4664 24.6152 11.4664 22.6169 10.2384 21.3889C9.01029 20.1607 7.01201 20.1607 5.78389 21.3889Z" fill="#565656"/>
<path d="M4.84691 21.1308C4.9459 21.005 5.05172 20.8844 5.16492 20.7713C5.7906 20.1456 6.58625 19.752 7.44763 19.6323C7.38338 18.8992 7.06854 18.2205 6.53862 17.6906C5.31056 16.4625 3.31233 16.4625 2.08421 17.6906C1.16475 18.6101 0.913352 19.9819 1.41161 21.1505C2.49366 20.6335 3.76038 20.6264 4.84691 21.1308Z" fill="#565656"/>
<path d="M15.9072 18.7891C15.9071 18.789 15.907 18.7889 15.9068 18.7888C15.9066 18.7887 15.9064 18.7886 15.9062 18.7884C14.6601 17.9417 12.9808 18.102 11.9131 19.1698C11.4303 19.6526 11.1189 20.2789 11.0234 20.9495C11.724 21.7399 12.0593 22.7418 12.0301 23.7353C12.6099 24.2597 13.353 24.5467 14.1404 24.5467C14.9817 24.5467 15.7727 24.219 16.3676 23.6241C16.7756 23.2162 17.0632 22.7065 17.1994 22.1502C17.1995 22.15 17.1995 22.1498 17.1995 22.1496C17.4638 21.0689 17.1528 19.9549 16.3676 19.1698C16.2248 19.027 16.0699 18.8989 15.9072 18.7891Z" fill="#565656"/>
<path d="M3.14973 21.6301C2.34303 21.6301 1.53666 21.9371 0.922523 22.5512C0.327633 23.1461 0 23.9371 0 24.7784C0 25.6197 0.327633 26.4107 0.922523 27.0056C2.15059 28.2337 4.14881 28.2337 5.37693 27.0056C5.97182 26.4107 6.29945 25.6197 6.29945 24.7784C6.29945 23.9371 5.97182 23.1461 5.37693 22.5512C4.76295 21.9373 3.9562 21.6301 3.14973 21.6301Z" fill="#565656"/>
<path d="M26.1708 0.551791C26.2343 0.319041 26.0971 0.0789631 25.8644 0.0154709C25.6318 -0.0479119 25.3915 0.0891897 25.3281 0.32194C24.6104 2.95356 23.0104 5.30025 20.8227 6.92967L18.3125 8.79943C18.2751 8.82727 18.2436 8.86008 18.2179 8.89606C17.7527 9.07347 17.3165 9.34828 16.9424 9.72245C16.5128 10.1521 16.1998 10.6818 16.0273 11.2571C16.0346 11.3259 16.0398 11.3949 16.0435 11.4641C17.0018 11.5144 17.9455 11.9043 18.6759 12.6347C19.382 13.3407 19.7956 14.2811 19.8475 15.2683C20.2976 15.2918 20.7442 15.3904 21.1671 15.5639C21.5123 15.3901 21.8272 15.1625 22.1048 14.8849C23.5281 13.4616 23.5281 11.1458 22.1048 9.7225C21.4981 9.1158 20.7291 8.7687 19.9363 8.67923L21.3446 7.63027C23.688 5.88475 25.402 3.37088 26.1708 0.551791Z" fill="#565656"/>
</svg>
