<svg width="60" height="60" viewBox="0 0 60 60" fill="none" xmlns="http://www.w3.org/2000/svg">
<path d="M14.5312 22.6321C14.9021 22.6321 15.2646 22.5221 15.5729 22.3161C15.8813 22.1101 16.1216 21.8172 16.2635 21.4746C16.4054 21.132 16.4426 20.755 16.3702 20.3913C16.2979 20.0276 16.1193 19.6935 15.8571 19.4313C15.5949 19.169 15.2608 18.9905 14.897 18.9181C14.5333 18.8458 14.1563 18.8829 13.8137 19.0248C13.4711 19.1667 13.1783 19.407 12.9722 19.7154C12.7662 20.0237 12.6562 20.3862 12.6562 20.7571C12.6562 21.2544 12.8538 21.7313 13.2054 22.0829C13.5571 22.4345 14.034 22.6321 14.5312 22.6321ZM14.5312 19.8243C14.7167 19.8243 14.8979 19.8793 15.0521 19.9823C15.2063 20.0853 15.3264 20.2317 15.3974 20.403C15.4683 20.5743 15.4869 20.7628 15.4507 20.9447C15.4146 21.1265 15.3253 21.2936 15.1942 21.4247C15.0631 21.5558 14.896 21.6451 14.7141 21.6813C14.5323 21.7174 14.3438 21.6989 14.1725 21.6279C14.0012 21.5569 13.8548 21.4368 13.7517 21.2826C13.6487 21.1284 13.5937 20.9472 13.5937 20.7618C13.5937 20.5131 13.6925 20.2747 13.8683 20.0989C14.0442 19.923 14.2826 19.8243 14.5312 19.8243Z" fill="#0B0B0B"/>
<path d="M31.1523 30.9438C31.5232 30.9438 31.8857 30.8339 32.194 30.6279C32.5024 30.4218 32.7427 30.129 32.8846 29.7864C33.0265 29.4438 33.0637 29.0668 32.9913 28.7031C32.919 28.3393 32.7404 28.0052 32.4782 27.743C32.2159 27.4808 31.8819 27.3022 31.5181 27.2299C31.1544 27.1575 30.7774 27.1947 30.4348 27.3366C30.0922 27.4785 29.7994 27.7188 29.5933 28.0272C29.3873 28.3355 29.2773 28.698 29.2773 29.0688C29.2773 29.5661 29.4749 30.043 29.8265 30.3947C30.1781 30.7463 30.6551 30.9438 31.1523 30.9438ZM31.1523 28.136C31.3378 28.136 31.519 28.191 31.6732 28.294C31.8274 28.397 31.9475 28.5435 32.0185 28.7148C32.0894 28.8861 32.108 29.0746 32.0718 29.2564C32.0357 29.4383 31.9464 29.6053 31.8153 29.7364C31.6841 29.8676 31.5171 29.9568 31.3352 29.993C31.1534 30.0292 30.9649 30.0106 30.7936 29.9397C30.6223 29.8687 30.4759 29.7486 30.3728 29.5944C30.2698 29.4402 30.2148 29.259 30.2148 29.0735C30.2148 28.8249 30.3136 28.5864 30.4894 28.4106C30.6652 28.2348 30.9037 28.136 31.1523 28.136Z" fill="#0B0B0B"/>
<path d="M39.47 53.3802C39.5943 53.3802 39.7136 53.3309 39.8015 53.243C39.8894 53.155 39.9388 53.0358 39.9388 52.9115V46.2187C39.9383 45.666 39.7184 45.136 39.3275 44.7453C38.9365 44.3545 38.4065 44.1349 37.8538 44.1346H37.1881C37.4745 43.7483 37.6296 43.2805 37.6306 42.7996V28.1099C37.6296 27.3873 37.3421 26.6945 36.831 26.1836C36.3199 25.6727 35.627 25.3854 34.9044 25.3846C34.5563 25.3846 34.2224 25.2463 33.9763 25.0002C33.7302 24.7541 33.5919 24.4202 33.5919 24.0721V18.8924H33.6416C34.0063 18.8922 34.3561 18.7472 34.6141 18.4894C34.8721 18.2316 35.0173 17.8819 35.0178 17.5171V16.3124C35.0173 15.9476 34.8722 15.5978 34.6142 15.3398C34.3562 15.0818 34.0064 14.9367 33.6416 14.9362H28.6728C28.3077 14.9362 27.9576 15.0812 27.6993 15.3392C27.4411 15.5973 27.2959 15.9474 27.2956 16.3124V17.5218C27.2961 17.8866 27.4413 18.2363 27.6993 18.4941C27.9573 18.7519 28.3071 18.8969 28.6719 18.8971H28.7216V24.0759C28.7216 24.424 28.5833 24.7578 28.3371 25.004C28.091 25.2501 27.7572 25.3884 27.4091 25.3884C26.6865 25.3891 25.9937 25.6765 25.4828 26.1874C24.9719 26.6984 24.6845 27.3911 24.6838 28.1137V42.7959C24.6848 43.2767 24.8399 43.7446 25.1263 44.1309H24.4597C24.0514 44.1309 23.6522 44.2516 23.3122 44.4778V37.5224C23.3117 37.0708 23.1321 36.6378 22.8127 36.3185C22.4934 35.9991 22.0604 35.8195 21.6088 35.819H20.5616C20.8476 35.4326 21.0023 34.9647 21.0031 34.484V19.7981C21.0026 19.0761 20.716 18.3839 20.2061 17.8728C19.6961 17.3618 19.0044 17.0738 18.2825 17.0718C17.9344 17.0718 17.6006 16.9335 17.3544 16.6874C17.1083 16.4413 16.97 16.1074 16.97 15.7593V10.5806H17.0188C17.3836 10.5801 17.7334 10.4349 17.9914 10.1769C18.2493 9.91894 18.3945 9.56917 18.395 9.20432V7.99494C18.3945 7.63018 18.2493 7.28051 17.9913 7.02267C17.7333 6.76483 17.3835 6.61988 17.0188 6.61963H12.05C11.6854 6.62012 11.3359 6.76518 11.0781 7.023C10.8202 7.28081 10.6752 7.63034 10.6747 7.99494V9.20432C10.6749 9.56908 10.8199 9.91885 11.0777 10.1769C11.3356 10.4349 11.6852 10.5801 12.05 10.5806H12.095V15.7593C12.095 16.1074 11.9567 16.4413 11.7106 16.6874C11.4644 16.9335 11.1306 17.0718 10.7825 17.0718C10.0598 17.0726 9.36687 17.3601 8.8559 17.8712C8.34494 18.3823 8.05768 19.0753 8.05719 19.7981V34.484C8.05797 34.9647 8.21272 35.4326 8.49875 35.819H7.45344C7.00181 35.8195 6.56882 35.9991 6.24947 36.3185C5.93012 36.6378 5.7505 37.0708 5.75 37.5224V52.9115C5.75 53.0358 5.79939 53.155 5.88729 53.243C5.9752 53.3309 6.09443 53.3802 6.21875 53.3802H39.47ZM25.6203 33.0609H36.6913V40.4999H25.6203V33.0609ZM28.2331 17.5171V16.3124C28.2334 16.1962 28.2797 16.0847 28.3619 16.0025C28.4441 15.9202 28.5556 15.8739 28.6719 15.8737H33.6406C33.7569 15.8739 33.8684 15.9202 33.9506 16.0025C34.0328 16.0847 34.0791 16.1962 34.0794 16.3124V17.5218C34.0791 17.638 34.0328 17.7494 33.9505 17.8315C33.8683 17.9135 33.7568 17.9596 33.6406 17.9596H28.6719C28.6139 17.9596 28.5566 17.9482 28.5031 17.9259C28.4496 17.9036 28.4011 17.8709 28.3603 17.8298C28.3195 17.7887 28.2873 17.7398 28.2654 17.6862C28.2436 17.6325 28.2326 17.5751 28.2331 17.5171ZM27.4081 26.3221C28.0049 26.3221 28.5772 26.0851 28.9991 25.6631C29.4211 25.2412 29.6581 24.6689 29.6581 24.0721V18.8924H32.6506V24.0712C32.6506 24.6679 32.8877 25.2402 33.3096 25.6622C33.7316 26.0841 34.3039 26.3212 34.9006 26.3212C35.3746 26.3219 35.829 26.5105 36.1643 26.8456C36.4996 27.1807 36.6884 27.635 36.6894 28.109V32.1224H25.6203V28.1099C25.6211 27.636 25.8097 27.1817 26.1448 26.8466C26.4799 26.5115 26.9342 26.3229 27.4081 26.3221ZM25.6203 42.7959V41.4374H36.6913V42.7931C36.6908 43.147 36.5499 43.4862 36.2997 43.7365C36.0494 43.9868 35.7102 44.1276 35.3563 44.1281H26.9544C26.6011 44.1273 26.2625 43.9868 26.0125 43.7372C25.7626 43.4875 25.6216 43.1491 25.6203 42.7959ZM24.4587 45.0684H37.8519C38.0029 45.0683 38.1525 45.0979 38.2921 45.1557C38.4317 45.2135 38.5584 45.2982 38.6652 45.4051C38.772 45.5119 38.8566 45.6388 38.9143 45.7784C38.9719 45.918 39.0015 46.0676 39.0013 46.2187V52.4465H23.3113V46.2187C23.311 46.0678 23.3405 45.9183 23.398 45.7788C23.4556 45.6394 23.5401 45.5126 23.6466 45.4057C23.7532 45.2989 23.8798 45.2141 24.0191 45.1562C24.1585 45.0984 24.3079 45.0685 24.4587 45.0684ZM8.99563 24.7499H20.0638V32.1918H8.99563V24.7499ZM11.6094 9.20619V7.99494C11.6096 7.8789 11.6558 7.76769 11.7379 7.68564C11.8199 7.60358 11.9311 7.55738 12.0472 7.55713H17.0159C17.1321 7.55713 17.2436 7.60323 17.3258 7.6853C17.4081 7.76738 17.4544 7.87874 17.4547 7.99494V9.20432C17.4544 9.3206 17.4081 9.43206 17.3259 9.51429C17.2437 9.59651 17.1322 9.64282 17.0159 9.64307H12.0472C11.931 9.64282 11.8196 9.59648 11.7376 9.51423C11.6555 9.43197 11.6094 9.32052 11.6094 9.20432V9.20619ZM10.7825 18.0093C11.3792 18.0093 11.9515 17.7723 12.3735 17.3503C12.7954 16.9284 13.0325 16.3561 13.0325 15.7593V10.5806H16.0325V15.7593C16.0325 16.3561 16.2696 16.9284 16.6915 17.3503C17.1135 17.7723 17.6858 18.0093 18.2825 18.0093C18.7555 18.0115 19.2084 18.201 19.5422 18.5361C19.876 18.8713 20.0635 19.325 20.0638 19.7981V23.8124H8.99563V19.7999C8.99538 19.3256 9.18344 18.8706 9.51849 18.5348C9.85354 18.1991 10.3082 18.0101 10.7825 18.0093ZM8.99563 34.484V33.1274H20.0638V34.484C20.0635 34.8378 19.9229 35.1771 19.6728 35.4274C19.4227 35.6777 19.0835 35.8185 18.7297 35.819H10.3306C9.97664 35.8188 9.63722 35.678 9.38691 35.4277C9.1366 35.1774 8.99587 34.838 8.99563 34.484ZM6.6875 37.5224C6.6875 37.3193 6.7682 37.1245 6.91184 36.9808C7.05548 36.8372 7.2503 36.7565 7.45344 36.7565H21.6097C21.8128 36.7565 22.0076 36.8372 22.1513 36.9808C22.2949 37.1245 22.3756 37.3193 22.3756 37.5224V52.4427H6.6875V37.5224Z" fill="#0B0B0B"/>
<path d="M51.5244 33.6963C51.1763 33.6963 50.8424 33.558 50.5963 33.3119C50.3502 33.0657 50.2119 32.7319 50.2119 32.3838V27.205H50.2616C50.6263 27.2045 50.976 27.0594 51.2338 26.8013C51.4917 26.5433 51.6366 26.1936 51.6369 25.8288V24.6194C51.6366 24.2546 51.4917 23.9049 51.2338 23.6469C50.976 23.3888 50.6263 23.2437 50.2616 23.2432H45.2928C44.928 23.2437 44.5784 23.3888 44.3205 23.6469C44.0627 23.9049 43.9177 24.2546 43.9175 24.6194V25.8288C43.9177 26.1936 44.0627 26.5433 44.3205 26.8013C44.5784 27.0594 44.928 27.2045 45.2928 27.205H45.3425V32.3838C45.3425 32.7319 45.2042 33.0657 44.9581 33.3119C44.7119 33.558 44.3781 33.6963 44.03 33.6963C43.3073 33.697 42.6144 33.9845 42.1034 34.4957C41.5924 35.0068 41.3052 35.6998 41.3047 36.4225V51.1085C41.3052 51.7108 41.5447 52.2883 41.9706 52.7142C42.3965 53.1401 42.9739 53.3795 43.5763 53.38H51.9772C52.5796 53.3795 53.1572 53.1401 53.5832 52.7142C54.0092 52.2884 54.2489 51.7109 54.2497 51.1085V36.4225C54.2489 35.6999 53.9616 35.007 53.4507 34.4959C52.9398 33.9849 52.247 33.6973 51.5244 33.6963ZM44.855 25.8288V24.6194C44.855 24.5032 44.9011 24.3918 44.9832 24.3095C45.0653 24.2272 45.1766 24.1809 45.2928 24.1807H50.2616C50.3778 24.1809 50.4891 24.2272 50.5712 24.3095C50.6533 24.3918 50.6994 24.5032 50.6994 24.6194V25.8288C50.6994 25.945 50.6533 26.0564 50.5712 26.1387C50.4891 26.221 50.3778 26.2673 50.2616 26.2675H45.2928C45.1766 26.2673 45.0653 26.221 44.9832 26.1387C44.9011 26.0564 44.855 25.945 44.855 25.8288ZM44.03 34.6338C44.6267 34.6338 45.199 34.3967 45.621 33.9748C46.0429 33.5528 46.28 32.9805 46.28 32.3838V27.205H49.2734V32.3838C49.2734 32.9805 49.5105 33.5528 49.9324 33.9748C50.3544 34.3967 50.9267 34.6338 51.5234 34.6338C51.9976 34.6343 52.4522 34.8229 52.7874 35.1583C53.1226 35.4937 53.311 35.9484 53.3112 36.4225V40.435H42.2422V36.4225C42.2424 35.9484 42.4308 35.4937 42.766 35.1583C43.1012 34.8229 43.5558 34.6343 44.03 34.6338ZM53.3112 48.8144H42.2422V41.3725H53.3122L53.3112 48.8144ZM51.9762 52.4425H43.5763C43.2225 52.4423 42.8833 52.3017 42.6332 52.0515C42.3831 51.8014 42.2424 51.4622 42.2422 51.1085V49.7519H53.3122V51.1085C53.3117 51.4623 53.1708 51.8015 52.9206 52.0516C52.6703 52.3017 52.3301 52.4423 51.9762 52.4425Z" fill="#0B0B0B"/>
<path d="M47.7773 39.2559C48.1482 39.2559 48.5107 39.1459 48.819 38.9399C49.1274 38.7338 49.3677 38.441 49.5096 38.0984C49.6515 37.7558 49.6887 37.3788 49.6163 37.0151C49.544 36.6513 49.3654 36.3173 49.1032 36.055C48.8409 35.7928 48.5069 35.6142 48.1431 35.5419C47.7794 35.4695 47.4024 35.5067 47.0598 35.6486C46.7172 35.7905 46.4244 36.0308 46.2183 36.3392C46.0123 36.6475 45.9023 37.01 45.9023 37.3809C45.9023 37.8781 46.0999 38.3551 46.4515 38.7067C46.8031 39.0583 47.2801 39.2559 47.7773 39.2559ZM47.7773 36.448C47.9628 36.448 48.144 36.503 48.2982 36.606C48.4524 36.7091 48.5725 36.8555 48.6435 37.0268C48.7144 37.1981 48.733 37.3866 48.6968 37.5684C48.6607 37.7503 48.5714 37.9173 48.4403 38.0485C48.3091 38.1796 48.1421 38.2689 47.9602 38.305C47.7784 38.3412 47.5899 38.3226 47.4186 38.2517C47.2473 38.1807 47.1009 38.0606 46.9978 37.9064C46.8948 37.7522 46.8398 37.571 46.8398 37.3855C46.8398 37.1369 46.9386 36.8985 47.1144 36.7226C47.2902 36.5468 47.5287 36.448 47.7773 36.448Z" fill="#0B0B0B"/>
</svg>
