<svg width="60" height="60" viewBox="0 0 60 60" fill="none" xmlns="http://www.w3.org/2000/svg">
<path d="M54.3945 37.4064H53.907V28.8471C53.905 28.1747 53.6364 27.5306 53.1601 27.0561C52.6838 26.5815 52.0387 26.3153 51.3664 26.3158H47.0539V20.3936C47.0534 19.6684 46.7652 18.973 46.2524 18.4601C45.7397 17.9472 45.0444 17.6588 44.3192 17.658H32.7664V16.7908C32.7669 16.2005 32.5333 15.6341 32.1168 15.2158C31.7002 14.7976 31.1348 14.5616 30.5445 14.5596H8.31641C7.72611 14.5616 7.16071 14.7976 6.74418 15.2158C6.32766 15.6341 6.09403 16.2005 6.09453 16.7908V37.4158C5.7793 37.4455 5.48644 37.5916 5.2732 37.8256C5.05995 38.0597 4.94165 38.3648 4.94141 38.6814V39.9471C4.94165 40.2851 5.07606 40.6093 5.31512 40.8484C5.55417 41.0874 5.87833 41.2218 6.21641 41.2221H12.5323C12.8892 42.4387 13.6306 43.507 14.6455 44.2669C15.6604 45.0269 16.8941 45.4376 18.162 45.4376C19.4299 45.4376 20.6637 45.0269 21.6786 44.2669C22.6935 43.507 23.4349 42.4387 23.7917 41.2221H36.2277C36.5838 42.4381 37.3244 43.506 38.3385 44.2657C39.3526 45.0254 40.5855 45.436 41.8527 45.436C43.1198 45.436 44.3527 45.0254 45.3668 44.2657C46.3809 43.506 47.1215 42.4381 47.4776 41.2221H54.3945C54.7326 41.2218 55.0568 41.0874 55.2958 40.8484C55.5349 40.6093 55.6693 40.2851 55.6695 39.9471V38.6814C55.6713 38.5135 55.6395 38.3469 55.5761 38.1915C55.5126 38.036 55.4187 37.8947 55.3 37.776C55.1813 37.6572 55.04 37.5634 54.8845 37.4999C54.729 37.4365 54.5625 37.4047 54.3945 37.4064ZM32.773 18.5955H44.3173C44.7939 18.5963 45.2507 18.786 45.5877 19.123C45.9246 19.4601 46.114 19.9171 46.1145 20.3936V21.0499H38.1898C38.0655 21.0499 37.9463 21.0993 37.8584 21.1872C37.7705 21.2751 37.7211 21.3943 37.7211 21.5186V26.2999H32.773V18.5955ZM46.1145 21.9855V26.298H38.6586V21.9855H46.1145ZM32.7664 27.2533H51.3664C51.7902 27.2526 52.197 27.4199 52.4975 27.7187C52.798 28.0175 52.9678 28.4233 52.9695 28.8471V37.4064H47.308C47.3023 37.3924 47.2939 37.3793 47.2883 37.3652C47.1919 37.1284 47.0801 36.8983 46.9536 36.6761C46.9189 36.6143 46.8805 36.5561 46.8439 36.4961C46.7407 36.3287 46.629 36.1666 46.5092 36.0105C46.467 35.9543 46.4286 35.8961 46.3836 35.8418C46.2388 35.6677 46.0842 35.5022 45.9205 35.3458C45.8502 35.2774 45.7761 35.2118 45.702 35.1471C45.5708 35.0327 45.4348 34.9246 45.2942 34.8227C45.2155 34.7655 45.1377 34.7083 45.0561 34.6549C44.8835 34.5417 44.7048 34.4381 44.5208 34.3446C44.442 34.3043 44.3633 34.2668 44.2827 34.2302C44.0871 34.1392 43.8865 34.0597 43.6817 33.9921C43.6358 33.9771 43.588 33.9602 43.5439 33.9471C43.3181 33.8796 43.0883 33.8264 42.8558 33.7877C42.7808 33.7746 42.7067 33.7633 42.6308 33.753C42.3853 33.7186 42.138 33.6998 41.8902 33.6968H41.8508C41.8395 33.6968 41.8292 33.6968 41.818 33.6968C41.567 33.6993 41.3164 33.7184 41.068 33.7539C40.9958 33.7633 40.9245 33.7746 40.8523 33.7868C40.6141 33.8263 40.3787 33.8807 40.1473 33.9499C40.1098 33.9611 40.0733 33.9743 40.0358 33.9864C39.8263 34.056 39.621 34.1374 39.4208 34.2302C39.3392 34.2668 39.2605 34.3052 39.1817 34.3455C39.0054 34.4355 38.8339 34.5347 38.668 34.6427C38.5742 34.7055 38.4805 34.7721 38.3867 34.8405C38.2592 34.9343 38.1355 35.028 38.0164 35.1349C37.932 35.208 37.8495 35.2821 37.7698 35.3599C37.6302 35.4949 37.4975 35.6369 37.3723 35.7855C37.2973 35.8736 37.2289 35.9674 37.1586 36.0611C37.0636 36.1861 36.9739 36.3168 36.8895 36.453C36.837 36.5364 36.7845 36.6189 36.7358 36.7052C36.6222 36.9082 36.5205 37.1176 36.4311 37.3324C36.4208 37.3586 36.4058 37.3811 36.3955 37.4064H32.7664V27.2533ZM12.342 38.8286C12.342 38.8483 12.3355 38.8661 12.3327 38.8858V38.8933C12.2739 39.3483 12.2739 39.809 12.3327 40.2639V40.2846H6.21641C6.12727 40.2834 6.04213 40.2474 5.9791 40.1844C5.91607 40.1213 5.88012 40.0362 5.87891 39.9471V38.6814C5.87915 38.592 5.91479 38.5063 5.97803 38.4431C6.04127 38.3798 6.12697 38.3442 6.21641 38.3439H12.4208C12.387 38.5033 12.3627 38.6655 12.342 38.8286ZM23.0848 39.6724C23.0778 39.9 23.055 40.1268 23.0164 40.3511C22.9995 40.4449 22.9873 40.5452 22.9639 40.6408V40.6586C22.718 41.7499 22.1078 42.7249 21.2337 43.423C20.3596 44.1211 19.2739 44.5007 18.1553 44.4992C17.0367 44.4978 15.9519 44.1155 15.0796 43.4151C14.2073 42.7148 13.5995 41.7383 13.3564 40.6464V40.6408C13.3367 40.5602 13.3273 40.4786 13.3123 40.3971C13.2632 40.1304 13.2359 39.8601 13.2308 39.5889V39.5608V39.5468C13.2343 39.2467 13.2657 38.9476 13.3245 38.6533C13.3311 38.6214 13.3311 38.5971 13.3395 38.5596C13.3395 38.5455 13.3461 38.5286 13.3489 38.5146C13.4098 38.2338 13.4954 37.959 13.6048 37.6933C13.6152 37.6689 13.6217 37.6455 13.633 37.6202C13.7419 37.3728 13.8711 37.1348 14.0192 36.9086C14.0445 36.8721 14.0605 36.8393 14.0886 36.798C14.1167 36.7568 14.1336 36.7399 14.1533 36.7108C14.3043 36.4952 14.472 36.2918 14.6548 36.1024C14.668 36.0902 14.6745 36.0799 14.6886 36.0668C14.8911 35.8665 15.1107 35.6842 15.3448 35.5221L15.3655 35.5071C15.3863 35.4943 15.406 35.4799 15.4245 35.4639L15.4339 35.4574L15.4517 35.4471C15.6343 35.3313 15.8244 35.228 16.0208 35.1377C16.1573 35.0677 16.2975 35.0051 16.4408 34.9502C16.6711 34.8589 16.908 34.7853 17.1495 34.7299C17.1615 34.7262 17.1737 34.7234 17.1861 34.7214C17.5078 34.6578 17.835 34.6264 18.163 34.6277C18.4727 34.6302 18.7815 34.6616 19.0855 34.7214C19.12 34.7241 19.1542 34.7297 19.1877 34.7383C19.4245 34.7933 19.657 34.8657 19.8833 34.9549C20.0347 35.0114 20.1827 35.0765 20.3267 35.1499C20.5021 35.2336 20.6724 35.3275 20.8367 35.4311C20.8536 35.4424 20.8723 35.4508 20.8892 35.463L20.8977 35.4686C20.9165 35.4846 20.9366 35.499 20.9577 35.5118C20.9764 35.523 20.9942 35.5408 21.0139 35.5539C21.2187 35.6979 21.4121 35.8575 21.5923 36.0311C21.6139 36.0527 21.6327 36.0658 21.6552 36.0883C21.6777 36.1108 21.6786 36.1155 21.6908 36.1277C21.8521 36.2967 22.0009 36.4772 22.1361 36.6677C22.1745 36.7211 22.212 36.7614 22.2523 36.8271C22.2805 36.8655 22.302 36.9077 22.3283 36.9471C22.4602 37.1527 22.5771 37.3677 22.678 37.5902C22.7014 37.6446 22.7192 37.6961 22.7398 37.7496C22.8245 37.9657 22.8937 38.1875 22.947 38.4133C22.962 38.4752 22.9808 38.5268 22.993 38.6008C23.0005 38.6308 23.0023 38.6636 23.008 38.6946C23.0543 38.9487 23.0804 39.206 23.0858 39.4643C23.0858 39.4989 23.0923 39.5327 23.0923 39.5664C23.0923 39.6002 23.0858 39.6368 23.0848 39.6743V39.6724ZM23.6164 37.4064C23.3726 36.7925 23.0271 36.2239 22.5945 35.7246C22.5345 35.6543 22.467 35.5802 22.3948 35.5052C21.7353 34.8167 20.918 34.2993 20.0136 33.9977L19.9864 33.9855L19.947 33.9733L19.8814 33.9518C19.8419 33.9384 19.8015 33.9277 19.7605 33.9199C19.7015 33.9011 19.6413 33.8861 19.5805 33.8749C19.4111 33.8324 19.2392 33.7977 19.0648 33.7708C19.0498 33.7708 19.0264 33.7624 19.0142 33.7614C18.9398 33.745 18.8643 33.734 18.7883 33.7286C18.7302 33.723 18.6702 33.7221 18.612 33.7174C18.4723 33.7043 18.3308 33.6968 18.1864 33.6958H18.1583C18.0142 33.6951 17.8702 33.7026 17.727 33.7183C17.6661 33.7183 17.6042 33.7183 17.5395 33.7296C17.4765 33.7333 17.4138 33.7417 17.352 33.7549C17.2923 33.7602 17.233 33.7703 17.1748 33.7849C17.0708 33.8027 16.9677 33.8214 16.8655 33.8439C16.7835 33.8541 16.703 33.8736 16.6255 33.9021C16.5898 33.9105 16.5514 33.9246 16.5148 33.9349C16.4783 33.9452 16.4211 33.9611 16.3742 33.9761L16.3311 33.9883C16.2373 34.0202 16.1436 34.0596 16.0498 34.0961C15.9889 34.1196 15.927 34.1402 15.8623 34.1655C15.7583 34.2096 15.6608 34.2593 15.5623 34.3099C14.9879 34.5938 14.4632 34.969 14.0089 35.4208V35.4255C13.9639 35.4696 13.9311 35.5127 13.8889 35.5577C13.3932 36.0847 12.9991 36.6988 12.7264 37.3689C12.7208 37.3811 12.7133 37.3943 12.7086 37.4064H7.03203V16.7908C7.03103 16.449 7.16573 16.1208 7.40655 15.8782C7.64736 15.6356 7.9746 15.4986 8.31641 15.4971H30.5445C30.8863 15.4986 31.2136 15.6356 31.4544 15.8782C31.6952 16.1208 31.8299 16.449 31.8289 16.7908V37.4064H23.6164ZM36.028 40.2846H23.9848C24.0719 39.6381 24.0456 38.9814 23.907 38.3439H36.1105C36.0248 38.7445 35.9818 39.1531 35.982 39.5627C35.982 39.6808 35.997 39.7914 36.0036 39.9058C36.0092 40.0052 36.012 40.1055 36.0223 40.203C36.0261 40.2293 36.0242 40.2574 36.028 40.2846ZM41.8489 44.5033C40.7253 44.5008 39.6362 44.1145 38.7621 43.4085C37.888 42.7025 37.2812 41.7191 37.0423 40.6211C37.0302 40.5705 37.0245 40.5189 37.0142 40.4674C36.8917 39.8626 36.8917 39.2394 37.0142 38.6346C37.0264 38.5718 37.0461 38.5108 37.0602 38.4471C37.1135 38.2175 37.1837 37.9922 37.2702 37.773C37.3011 37.6943 37.333 37.6155 37.3639 37.5396C37.4607 37.3263 37.5726 37.1201 37.6986 36.9227C37.7314 36.8721 37.7605 36.8186 37.7923 36.7689C38.1337 36.2748 38.5619 35.8466 39.0561 35.5052C39.0983 35.4761 39.1442 35.4527 39.1873 35.4246C39.3889 35.2948 39.5998 35.1802 39.8183 35.0814C39.8961 35.0458 39.9748 35.0139 40.0545 34.983C40.2593 34.9038 40.4692 34.8383 40.6827 34.7871C40.7642 34.7674 40.8458 34.743 40.9292 34.7271C41.5312 34.6046 42.1516 34.6046 42.7536 34.7271C42.8352 34.743 42.9148 34.7664 42.9955 34.7861C43.2099 34.8374 43.4207 34.9028 43.6264 34.9821C43.707 35.0139 43.7877 35.0468 43.8673 35.0833C44.0788 35.179 44.2831 35.29 44.4786 35.4152C44.5292 35.448 44.5836 35.4761 44.6342 35.5089C45.1228 35.8445 45.5473 36.2649 45.8877 36.7502C45.9373 36.8214 45.9814 36.8993 46.0264 36.9733C46.1325 37.1431 46.2283 37.319 46.3133 37.5002C46.3592 37.6005 46.4023 37.7027 46.4426 37.8077C46.5131 37.9937 46.5723 38.1837 46.6198 38.3768C46.6433 38.4705 46.6714 38.5643 46.6892 38.658C46.7481 38.9554 46.7795 39.2576 46.783 39.5608V39.5664C46.7788 39.8449 46.7505 40.1225 46.6986 40.3961C46.6836 40.4768 46.6752 40.5583 46.6555 40.6389V40.6446C46.4103 41.737 45.801 42.7136 44.9276 43.4141C44.0541 44.1147 42.9685 44.4974 41.8489 44.4996V44.5033ZM54.732 39.9471C54.7318 40.0365 54.6961 40.1222 54.6329 40.1854C54.5697 40.2487 54.484 40.2843 54.3945 40.2846H47.6745C47.6745 40.2743 47.6745 40.263 47.6745 40.2536C47.7029 40.0244 47.718 39.7937 47.7195 39.5627C47.7195 39.5299 47.7195 39.4971 47.7195 39.4633C47.7195 39.2936 47.7102 39.1249 47.6933 38.9589C47.6867 38.8952 47.6727 38.8333 47.6642 38.7714C47.6455 38.6346 47.6277 38.4977 47.5995 38.3636V38.3458H54.3945C54.4391 38.3448 54.4835 38.3528 54.5249 38.3694C54.5663 38.386 54.6039 38.4108 54.6355 38.4424C54.667 38.4739 54.6918 38.5116 54.7084 38.553C54.725 38.5944 54.7331 38.6387 54.732 38.6833V39.9471Z" fill="#0B0B0B"/>
<path d="M41.8494 36.7969C41.3005 36.7974 40.7641 36.9608 40.3081 37.2664C39.8521 37.5719 39.497 38.0058 39.2877 38.5133C39.0784 39.0207 39.0244 39.5788 39.1324 40.117C39.2404 40.6551 39.5057 41.1491 39.8946 41.5365C40.2835 41.9238 40.7786 42.1871 41.3172 42.2929C41.8558 42.3988 42.4137 42.3425 42.9203 42.1311C43.4269 41.9198 43.8594 41.5629 44.163 41.1057C44.4667 40.6485 44.6279 40.1114 44.6262 39.5625C44.6245 38.8276 44.331 38.1235 43.8103 37.6049C43.2896 37.0863 42.5843 36.7956 41.8494 36.7969ZM41.8494 41.4066C41.4866 41.406 41.1321 41.298 40.8306 41.0962C40.5291 40.8944 40.2941 40.6078 40.1553 40.2726C40.0165 39.9374 39.9801 39.5686 40.0507 39.2127C40.1213 38.8569 40.2957 38.5299 40.5519 38.273C40.8081 38.0161 41.1347 37.8409 41.4903 37.7694C41.846 37.698 42.2149 37.7334 42.5505 37.8714C42.886 38.0093 43.1732 38.2435 43.3758 38.5445C43.5784 38.8455 43.6873 39.1997 43.6887 39.5625C43.6896 39.8045 43.6427 40.0443 43.5506 40.2681C43.4585 40.4919 43.3231 40.6954 43.1522 40.8667C42.9813 41.0381 42.7782 41.174 42.5546 41.2666C42.3311 41.3593 42.0914 41.4068 41.8494 41.4066Z" fill="#0B0B0B"/>
<path d="M18.1625 36.7969C17.6132 36.7958 17.076 36.9577 16.6189 37.2622C16.1618 37.5668 15.8054 38.0001 15.5948 38.5074C15.3842 39.0147 15.329 39.5731 15.436 40.1118C15.5431 40.6505 15.8077 41.1453 16.1963 41.5335C16.5849 41.9217 17.08 42.1858 17.6188 42.2923C18.1576 42.3989 18.7159 42.343 19.223 42.1319C19.7301 41.9209 20.1631 41.564 20.4671 41.1066C20.7712 40.6491 20.9326 40.1118 20.9309 39.5625C20.928 38.8294 20.6352 38.1273 20.1166 37.6092C19.598 37.0911 18.8956 36.7991 18.1625 36.7969ZM18.1625 41.4066C17.7993 41.4077 17.444 41.3011 17.1414 41.1003C16.8388 40.8995 16.6025 40.6135 16.4625 40.2785C16.3224 39.9434 16.2848 39.5743 16.3544 39.2179C16.424 38.8615 16.5977 38.5337 16.8536 38.276C17.1095 38.0183 17.436 37.8422 17.7919 37.7701C18.1478 37.6979 18.5172 37.7329 18.8532 37.8706C19.1892 38.0083 19.4769 38.2425 19.6799 38.5436C19.8828 38.8448 19.9919 39.1994 19.9934 39.5625C19.9937 40.0494 19.8013 40.5166 19.4582 40.8621C19.1152 41.2076 18.6494 41.4033 18.1625 41.4066Z" fill="#0B0B0B"/>
</svg>
