<svg width="25" height="35" viewBox="0 0 25 35" fill="none" xmlns="http://www.w3.org/2000/svg">
<path d="M0 30.8769V32.5C0 33.8806 1.11937 35 2.5 35H22.5C23.8806 35 25 33.8806 25 32.5V30.8769C25 30.3094 24.8069 29.7581 24.4519 29.315L19 22.5H6L0.548125 29.315C0.193125 29.7587 0 30.3094 0 30.8769Z" fill="#3CC8B4"/>
<path d="M2.5 32.5V30.8769C2.5 30.3094 2.69313 29.7581 3.04813 29.315L8.5 22.5H6L0.548125 29.315C0.193125 29.7587 0 30.3094 0 30.8769V32.5C0 33.8806 1.11937 35 2.5 35H5C3.61937 35 2.5 33.8806 2.5 32.5Z" fill="#1EAA96"/>
<path d="M10 30C9.30937 30 8.75 29.4406 8.75 28.75C8.75 28.0594 9.30937 27.5 10 27.5C10.6906 27.5 11.25 28.0594 11.25 28.75C11.25 29.4406 10.6906 30 10 30Z" fill="#1EAA96"/>
<path d="M13.75 27.5C13.0594 27.5 12.5 26.9406 12.5 26.25C12.5 25.5594 13.0594 25 13.75 25C14.4406 25 15 25.5594 15 26.25C15 26.9406 14.4406 27.5 13.75 27.5Z" fill="#1EAA96"/>
<path d="M17.5 31.25C16.8094 31.25 16.25 30.6906 16.25 30C16.25 29.3094 16.8094 28.75 17.5 28.75C18.1906 28.75 18.75 29.3094 18.75 30C18.75 30.6906 18.1906 31.25 17.5 31.25Z" fill="#1EAA96"/>
<path d="M12.4997 0.86499L5.5791 5.19062V12.1112L12.1166 16.1969L12.7654 16.3269L19.0372 12.4069L19.4204 11.8812V5.19062L12.4997 0.86499ZM18.7716 11.7519L12.4997 15.6719L6.22785 11.7519V5.54999L12.4997 1.62999L18.7716 5.54999V11.7519Z" fill="#505050"/>
<path d="M12.4995 3.46062C11.5439 3.46062 10.7695 2.68625 10.7695 1.73063C10.7695 0.774375 11.5439 0 12.4995 0C13.4552 0 14.2295 0.774375 14.2295 1.73C14.2295 2.68563 13.4552 3.46062 12.4995 3.46062Z" fill="#FA6450"/>
<path d="M11.6345 1.73C11.6345 0.925 12.187 0.25375 12.932 0.06125C12.7933 0.025 12.6495 0 12.4995 0C11.5439 0 10.7695 0.774375 10.7695 1.73C10.7695 2.68563 11.5439 3.46 12.4995 3.46C12.6495 3.46 12.7933 3.435 12.932 3.39875C12.187 3.20625 11.6345 2.53562 11.6345 1.73Z" fill="#DC4632"/>
<path d="M6.08902 6.51873H5.99465C5.06527 6.51873 4.31152 5.76498 4.31152 4.83561V4.74123C4.31152 3.81186 5.06527 3.05811 5.99465 3.05811H6.08902C7.0184 3.05811 7.77215 3.81186 7.77215 4.74123V4.83561C7.77215 5.76561 7.01902 6.51873 6.08902 6.51873Z" fill="#FAB400"/>
<path d="M5.1775 4.78878C5.1775 3.98378 5.73 3.31253 6.475 3.12003C6.33625 3.08378 6.1925 3.05878 6.0425 3.05878C5.08687 3.05878 4.3125 3.83315 4.3125 4.78878C4.3125 5.7444 5.08687 6.51878 6.0425 6.51878C6.1925 6.51878 6.33625 6.49378 6.475 6.45753C5.73 6.26503 5.1775 5.59378 5.1775 4.78878Z" fill="#DC9600"/>
<path d="M18.9575 3.05878C18.0019 3.05878 17.2275 3.83315 17.2275 4.78878C17.2275 5.7444 18.0019 6.51878 18.9575 6.51878C19.9132 6.51878 20.6875 5.7444 20.6875 4.78878C20.6875 3.83315 19.9132 3.05878 18.9575 3.05878Z" fill="#64C8F0"/>
<path d="M18.0925 4.78878C18.0925 5.59378 18.645 6.26503 19.39 6.45753C19.2513 6.49378 19.1075 6.51878 18.9575 6.51878C18.0019 6.51878 17.2275 5.7444 17.2275 4.78878C17.2275 3.83315 18.0019 3.05878 18.9575 3.05878C19.1075 3.05878 19.2513 3.08378 19.39 3.12003C18.645 3.31253 18.0925 3.98378 18.0925 4.78878Z" fill="#46AAD2"/>
<path d="M18.9575 14.2431C18.0019 14.2431 17.2275 13.4688 17.2275 12.5131C17.2275 11.5575 18.0019 10.7831 18.9575 10.7831C19.9132 10.7831 20.6875 11.5575 20.6875 12.5131C20.6875 13.4688 19.9132 14.2431 18.9575 14.2431Z" fill="#FAB400"/>
<path d="M18.0925 12.5131C18.0925 11.7081 18.645 11.0369 19.39 10.8444C19.2513 10.8081 19.1075 10.7831 18.9575 10.7831C18.0019 10.7831 17.2275 11.5575 17.2275 12.5131C17.2275 13.4688 18.0019 14.2431 18.9575 14.2431C19.1075 14.2431 19.2513 14.2181 19.39 14.1819C18.645 13.9894 18.0925 13.3181 18.0925 12.5131Z" fill="#DC9600"/>
<path d="M6.0425 10.7831C5.08687 10.7831 4.3125 11.5575 4.3125 12.5131C4.3125 13.4688 5.08687 14.2431 6.0425 14.2431C6.99812 14.2431 7.7725 13.4688 7.7725 12.5131C7.7725 11.5575 6.99812 10.7831 6.0425 10.7831Z" fill="#64C8F0"/>
<path d="M5.1775 12.5131C5.1775 13.3181 5.73 13.9894 6.475 14.1819C6.33625 14.2181 6.1925 14.2431 6.0425 14.2431C5.08687 14.2431 4.3125 13.4688 4.3125 12.5131C4.3125 11.5575 5.08687 10.7831 6.0425 10.7831C6.1925 10.7831 6.33625 10.8081 6.475 10.8444C5.73 11.0369 5.1775 11.7081 5.1775 12.5131Z" fill="#46AAD2"/>
<path d="M15.1425 16.92C14.6494 17.8844 13.6556 18.5512 12.5 18.5512C11.3425 18.5512 10.35 17.8819 9.85875 16.9144C9.68812 17.6237 9.36625 18.2919 8.90437 18.8694L6 22.5H19L16.0956 18.8694C15.635 18.2944 15.3138 17.6275 15.1425 16.92Z" fill="#F0F0F0"/>
<path d="M9.85875 16.915C9.68812 17.6244 9.36625 18.2925 8.90437 18.87L6 22.5H8.5L11.4044 18.8694C11.5162 18.7294 11.6169 18.5831 11.7125 18.4331C10.9012 18.2087 10.2331 17.6525 9.85875 16.915Z" fill="#D2D2D2"/>
<path d="M12.4995 13.8412C11.5439 13.8412 10.7695 14.6156 10.7695 15.5712C10.7695 16.5269 11.5439 17.3012 12.4995 17.3012C13.4552 17.3012 14.2295 16.5269 14.2295 15.5712C14.2295 14.6162 13.4552 13.8412 12.4995 13.8412Z" fill="#FA6450"/>
<path d="M11.6345 15.5719C11.6345 16.3769 12.187 17.0481 12.932 17.2406C12.7933 17.2769 12.6495 17.3019 12.4995 17.3019C11.5439 17.3019 10.7695 16.5275 10.7695 15.5719C10.7695 14.6162 11.5439 13.8419 12.4995 13.8419C12.6495 13.8419 12.7933 13.8669 12.932 13.9031C12.187 14.0956 11.6345 14.7662 11.6345 15.5719Z" fill="#DC4632"/>
<path d="M12.4996 5L10.4264 9.14562C9.65581 10.6869 10.7764 12.5 12.4996 12.5C14.2227 12.5 15.3433 10.6869 14.5727 9.14562L12.4996 5Z" fill="#64C8F0"/>
<path d="M11.4971 9.14562L13.0346 6.07063L12.4996 5L10.4264 9.14562C9.65581 10.6869 10.7764 12.5 12.4996 12.5C12.6864 12.5 12.8639 12.475 13.0352 12.435C11.6283 12.1069 10.8102 10.52 11.4971 9.14562Z" fill="#46AAD2"/>
</svg>
