<svg width="40" height="40" viewBox="0 0 40 40" fill="none" xmlns="http://www.w3.org/2000/svg">
<g clip-path="url(#clip0_982_5797)">
<path fill-rule="evenodd" clip-rule="evenodd" d="M1.40587 31.2812L5.33556 33.5469L9.26524 35.8125C10.1949 36.3516 11.3902 36.0234 11.9293 35.1016L17.8512 24.8516C18.5152 23.7031 18.9137 22.625 19.1637 21.3203C20.1715 15.9766 21.6012 10.8516 24.4527 6.4375C23.1481 5.67969 20.5465 4.1875 19.2574 3.4375C16.859 8.11719 13.1402 11.9219 9.01524 15.4609C8.00743 16.3281 7.27306 17.2109 6.60899 18.3594L0.687118 28.6172C0.155868 29.5469 0.476181 30.7422 1.40587 31.2812Z" fill="#DA2966"/>
<mask id="mask0_982_5797" style="mask-type:luminance" maskUnits="userSpaceOnUse" x="0" y="3" width="25" height="34">
<path d="M1.40587 31.2812L5.33556 33.5469L9.26524 35.8125C10.1949 36.3516 11.3902 36.0234 11.9293 35.1016L17.8512 24.8516C18.5152 23.7031 18.9137 22.625 19.1637 21.3203C20.1715 15.9766 21.6012 10.8516 24.4527 6.4375C23.1481 5.67969 20.5465 4.1875 19.2574 3.4375C16.859 8.11719 13.1402 11.9219 9.01524 15.4609C8.00743 16.3281 7.27306 17.2109 6.60899 18.3594L0.687118 28.6172C0.155868 29.5469 0.476181 30.7422 1.40587 31.2812Z" fill="white"/>
</mask>
<g mask="url(#mask0_982_5797)">
<path fill-rule="evenodd" clip-rule="evenodd" d="M-1.25038 29.75L2.67931 32.0156L6.60899 34.2812C7.53868 34.8203 8.73399 34.4922 9.27306 33.5703L15.1949 23.3203C15.859 22.1719 16.2574 21.0938 16.5074 19.7891C17.5152 14.4453 18.9449 9.32031 21.7965 4.90625C20.5074 4.16406 17.9059 2.66406 16.6168 1.91406C14.2106 6.58594 10.484 10.3906 6.35899 13.9375C5.35118 14.8047 4.61681 15.6875 3.95274 16.8359L-1.96913 27.0859C-2.50038 28.0156 -2.18007 29.2109 -1.25038 29.75Z" fill="#FF005C"/>
</g>
<path fill-rule="evenodd" clip-rule="evenodd" d="M24.4375 6.42969C23.1484 5.67969 20.5469 4.17969 19.2578 3.4375C17 7.84375 13.5703 11.4766 9.72656 14.8438L19.3203 20.3828C20.3203 15.375 21.75 10.5859 24.4375 6.42969ZM17.2187 25.9219L13.2266 32.8359C10.4297 31.2187 4.79688 27.9688 2 26.3516L5.99219 19.4375C7.85938 20.5156 10.2891 20.6406 12.1641 21.7188C14.0234 22.8047 15.3437 24.8437 17.2187 25.9219Z" fill="#FFB43F"/>
<mask id="mask1_982_5797" style="mask-type:luminance" maskUnits="userSpaceOnUse" x="2" y="3" width="23" height="30">
<path d="M24.4375 6.42969C23.1484 5.67969 20.5469 4.17969 19.2578 3.4375C17 7.84375 13.5703 11.4766 9.72656 14.8438L19.3203 20.3828C20.3203 15.375 21.75 10.5859 24.4375 6.42969ZM17.2187 25.9219L13.2266 32.8359C10.4297 31.2187 4.79688 27.9688 2 26.3516L5.99219 19.4375C7.85938 20.5156 10.2891 20.6406 12.1641 21.7188C14.0234 22.8047 15.3437 24.8437 17.2187 25.9219Z" fill="white"/>
</mask>
<g mask="url(#mask1_982_5797)">
<path fill-rule="evenodd" clip-rule="evenodd" d="M-1.25038 29.75L2.67931 32.0156L6.60899 34.2812C7.53868 34.8203 8.73399 34.4922 9.27306 33.5703L15.1949 23.3203C15.859 22.1719 16.2574 21.0938 16.5074 19.7891C17.5152 14.4453 18.9449 9.32031 21.7965 4.90625C20.5074 4.16406 17.9059 2.66406 16.6168 1.91406C14.2106 6.58594 10.484 10.3906 6.35899 13.9375C5.35118 14.8047 4.61681 15.6875 3.95274 16.8359L-1.96913 27.0859C-2.50038 28.0156 -2.18007 29.2109 -1.25038 29.75Z" fill="#FFE45E"/>
</g>
<path fill-rule="evenodd" clip-rule="evenodd" d="M19.164 3.38283L24.5311 6.4844C25.7343 7.15627 26.2655 5.22658 26.7577 4.53908C27.0233 4.08596 26.8593 3.49221 26.4061 3.2344L21.0468 0.12502C20.5936 -0.140605 19.9999 0.015645 19.7421 0.476583C19.3905 1.25783 17.9843 2.67971 19.164 3.38283Z" fill="#FD8644"/>
<mask id="mask2_982_5797" style="mask-type:luminance" maskUnits="userSpaceOnUse" x="18" y="-1" width="9" height="8">
<path d="M19.164 3.38283L24.5311 6.4844C25.7343 7.15627 26.2655 5.22658 26.7577 4.53908C27.0233 4.08596 26.8593 3.49221 26.4061 3.2344L21.0468 0.12502C20.5936 -0.140605 19.9999 0.015645 19.7421 0.476583C19.3905 1.25783 17.9843 2.67971 19.164 3.38283Z" fill="white"/>
</mask>
<g mask="url(#mask2_982_5797)">
<path fill-rule="evenodd" clip-rule="evenodd" d="M18.4529 1.56252L23.8201 4.66408C25.0154 5.33596 25.5545 3.40627 26.0545 2.71877C26.3201 2.26565 26.156 1.6719 25.7029 1.40627L20.3357 -1.69529C19.8826 -1.96092 19.2889 -1.80467 19.031 -1.34373C18.6717 -0.56248 17.2654 0.859395 18.4529 1.56252Z" fill="#FFB43F"/>
</g>
<path fill-rule="evenodd" clip-rule="evenodd" d="M14.0938 31.3281L2.86719 24.8438L1.38281 27.4219L12.6094 33.8984L14.0938 31.3281Z" fill="#BBCDFB"/>
<mask id="mask3_982_5797" style="mask-type:luminance" maskUnits="userSpaceOnUse" x="1" y="24" width="14" height="10">
<path d="M14.0938 31.3281L2.86719 24.8438L1.38281 27.4219L12.6094 33.8984L14.0938 31.3281Z" fill="white"/>
</mask>
<g mask="url(#mask3_982_5797)">
<path fill-rule="evenodd" clip-rule="evenodd" d="M-1.25038 29.75L2.67931 32.0156L6.60899 34.2812C7.53868 34.8203 8.73399 34.4922 9.27306 33.5703L15.1949 23.3203C15.859 22.1719 16.2574 21.0938 16.5074 19.7891C17.5152 14.4453 18.9449 9.32031 21.7965 4.90625C20.5074 4.16406 17.9059 2.66406 16.6168 1.91406C14.2106 6.58594 10.484 10.3906 6.35899 13.9375C5.35118 14.8047 4.61681 15.6875 3.95274 16.8359L-1.96913 27.0859C-2.50038 28.0156 -2.18007 29.2109 -1.25038 29.75Z" fill="#DAEEFE"/>
</g>
<path fill-rule="evenodd" clip-rule="evenodd" d="M16.9297 16.1719H24.8438H32.7578C33.3359 16.1719 33.8047 16.6406 33.8047 17.2187V37.1094C34.3125 37.1094 34.625 37.9688 34.625 38.6406C34.625 39.3828 34.0156 39.9922 33.2734 39.9922H24.8438H16.4063C15.6641 39.9922 15.0547 39.3828 15.0547 38.6406C15.0547 37.9688 15.3672 37.1094 15.875 37.1094V17.2187C15.875 16.6406 16.3516 16.1719 16.9297 16.1719Z" fill="#BBCDFB"/>
<mask id="mask4_982_5797" style="mask-type:luminance" maskUnits="userSpaceOnUse" x="15" y="16" width="20" height="24">
<path d="M16.9297 16.1719H24.8438H32.7578C33.3359 16.1719 33.8047 16.6406 33.8047 17.2187V37.1094C34.3125 37.1094 34.625 37.9688 34.625 38.6406C34.625 39.3828 34.0156 39.9922 33.2734 39.9922H24.8438H16.4063C15.6641 39.9922 15.0547 39.3828 15.0547 38.6406C15.0547 37.9688 15.3672 37.1094 15.875 37.1094V17.2187C15.875 16.6406 16.3516 16.1719 16.9297 16.1719Z" fill="white"/>
</mask>
<g mask="url(#mask4_982_5797)">
<path fill-rule="evenodd" clip-rule="evenodd" d="M15.0938 16.1719H23.0078H30.9219C31.5 16.1719 31.9688 16.6406 31.9688 17.2187V37.1094C32.4766 37.1094 32.7891 37.9688 32.7891 38.6406C32.7891 39.3828 32.1797 39.9922 31.4375 39.9922H23.0078H14.5703C13.8281 39.9922 13.2188 39.3828 13.2188 38.6406C13.2188 37.9688 13.5312 37.1094 14.0391 37.1094V17.2187C14.0391 16.6406 14.5156 16.1719 15.0938 16.1719Z" fill="#DAEEFE"/>
</g>
<path fill-rule="evenodd" clip-rule="evenodd" d="M33.8047 18.4766H36.875C38.3516 18.4766 39.5703 19.6953 39.5703 21.1719V30.1172C39.5703 31.6016 38.3594 32.8047 36.875 32.8125H33.8047V30.2266H36.875C36.9297 30.2266 36.9766 30.1797 36.9766 30.125V21.1641C36.9766 21.1016 36.9375 21.0625 36.875 21.0625H33.8047V18.4766Z" fill="#DAEEFE"/>
<mask id="mask5_982_5797" style="mask-type:luminance" maskUnits="userSpaceOnUse" x="33" y="18" width="7" height="15">
<path d="M33.8047 18.4766H36.875C38.3516 18.4766 39.5703 19.6953 39.5703 21.1719V30.1172C39.5703 31.6016 38.3594 32.8047 36.875 32.8125H33.8047V30.2266H36.875C36.9297 30.2266 36.9766 30.1797 36.9766 30.125V21.1641C36.9766 21.1016 36.9375 21.0625 36.875 21.0625H33.8047V18.4766Z" fill="white"/>
</mask>
<g mask="url(#mask5_982_5797)">
<path fill-rule="evenodd" clip-rule="evenodd" d="M17.6719 17.2109H35.6016V37.1094H17.6719V17.2109Z" fill="#BBCDFB"/>
</g>
<path fill-rule="evenodd" clip-rule="evenodd" d="M15.875 17.2109H33.8047V37.1094H15.875V17.2109Z" fill="#FFB43F"/>
<mask id="mask6_982_5797" style="mask-type:luminance" maskUnits="userSpaceOnUse" x="15" y="17" width="19" height="21">
<path d="M15.875 17.2109H33.8047V37.1094H15.875V17.2109Z" fill="white"/>
</mask>
<g mask="url(#mask6_982_5797)">
<path fill-rule="evenodd" clip-rule="evenodd" d="M14.4688 17.2109H32.3984V37.1094H14.4688V17.2109Z" fill="#FFE45E"/>
</g>
<path fill-rule="evenodd" clip-rule="evenodd" d="M19.9922 21.75C20.6797 21.75 21.2422 22.3125 21.2422 23V33.4766C21.2422 34.1641 20.6797 34.7266 19.9922 34.7266C19.3047 34.7266 18.7422 34.1641 18.7422 33.4766V23.0078C18.7422 22.3125 19.3047 21.75 19.9922 21.75ZM29.6953 21.75C30.3828 21.75 30.9453 22.3125 30.9453 23V33.4766C30.9453 34.1641 30.3828 34.7266 29.6953 34.7266C29.0078 34.7266 28.4453 34.1641 28.4453 33.4766V23.0078C28.4375 22.3125 29 21.75 29.6953 21.75ZM24.8438 21.75C25.5313 21.75 26.0938 22.3125 26.0938 23V33.4766C26.0938 34.1641 25.5313 34.7266 24.8438 34.7266C24.1563 34.7266 23.5938 34.1641 23.5938 33.4766V23.0078C23.5859 22.3125 24.1484 21.75 24.8438 21.75Z" fill="#FD8644"/>
<mask id="mask7_982_5797" style="mask-type:luminance" maskUnits="userSpaceOnUse" x="18" y="21" width="13" height="14">
<path d="M19.9922 21.75C20.6797 21.75 21.2422 22.3125 21.2422 23V33.4766C21.2422 34.1641 20.6797 34.7266 19.9922 34.7266C19.3047 34.7266 18.7422 34.1641 18.7422 33.4766V23.0078C18.7422 22.3125 19.3047 21.75 19.9922 21.75ZM29.6953 21.75C30.3828 21.75 30.9453 22.3125 30.9453 23V33.4766C30.9453 34.1641 30.3828 34.7266 29.6953 34.7266C29.0078 34.7266 28.4453 34.1641 28.4453 33.4766V23.0078C28.4375 22.3125 29 21.75 29.6953 21.75ZM24.8438 21.75C25.5313 21.75 26.0938 22.3125 26.0938 23V33.4766C26.0938 34.1641 25.5313 34.7266 24.8438 34.7266C24.1563 34.7266 23.5938 34.1641 23.5938 33.4766V23.0078C23.5859 22.3125 24.1484 21.75 24.8438 21.75Z" fill="white"/>
</mask>
<g mask="url(#mask7_982_5797)">
<path fill-rule="evenodd" clip-rule="evenodd" d="M21.1641 21.75C21.8516 21.75 22.4141 22.3125 22.4141 23V33.4766C22.4141 34.1641 21.8516 34.7266 21.1641 34.7266C20.4766 34.7266 19.9141 34.1641 19.9141 33.4766V23.0078C19.9141 22.3125 20.4766 21.75 21.1641 21.75ZM30.8594 21.75C31.5469 21.75 32.1094 22.3125 32.1094 23V33.4766C32.1094 34.1641 31.5469 34.7266 30.8594 34.7266C30.1719 34.7266 29.6094 34.1641 29.6094 33.4766V23.0078C29.6094 22.3125 30.1719 21.75 30.8594 21.75ZM26.0156 21.75C26.7031 21.75 27.2656 22.3125 27.2656 23V33.4766C27.2656 34.1641 26.7031 34.7266 26.0156 34.7266C25.3281 34.7266 24.7656 34.1641 24.7656 33.4766V23.0078C24.7578 22.3125 25.3203 21.75 26.0156 21.75Z" fill="#FFB43F"/>
</g>
<path fill-rule="evenodd" clip-rule="evenodd" d="M33.8045 17.2188H30.828C29.5233 17.1797 29.5467 18.9766 28.1327 18.875C26.7108 18.9766 26.7499 17.1797 25.4374 17.211L19.8124 17.2032C19.1952 17.2032 18.6717 17.5469 18.4295 18.1172C18.0702 18.9532 17.242 19.5391 16.2811 19.5391C14.992 19.5391 13.9452 18.4922 13.9452 17.2032C13.6952 15.1328 13.9842 12.961 17.3749 12.961C18.078 11.4141 20.5311 11.3125 21.3592 12.8047C22.6092 11.9141 24.5858 12.4297 25.2499 13.7813C26.0858 12.6719 28.0155 12.711 28.8202 13.8438C31.242 12.4375 33.7499 14.7891 33.8045 17.2188Z" fill="#DAEEFE"/>
</g>
<defs>
<clipPath id="clip0_982_5797">
<rect width="40" height="40" fill="white"/>
</clipPath>
</defs>
</svg>
