<svg width="40" height="40" viewBox="0 0 40 40" fill="none" xmlns="http://www.w3.org/2000/svg">
<path fill-rule="evenodd" clip-rule="evenodd" d="M37.35 21.0117C37.3516 21.0117 37.3539 21.011 37.3555 21.011C37.3555 21 37.3555 20.9891 37.3555 20.9774V19.4313H38.1922C38.5445 19.4313 38.832 19.1453 38.832 18.7914C38.832 18.4375 38.5437 18.1516 38.1922 18.1516H36.7148H35.2398C34.8852 18.1516 34.6 18.4375 34.6 18.7914C34.6 19.1453 34.8859 19.4313 35.2398 19.4313H36.075V20.9774H33.5328V7.42892C33.5328 7.4047 33.5195 7.38439 33.4992 7.37111C24.3328 1.79923 9.51094 1.79923 0.345312 7.37111C0.325 7.38439 0.314062 7.4047 0.314062 7.42892V27.6102C0.314062 27.632 0.325 27.6547 0.345312 27.6656C2.03047 28.6906 3.90703 29.5258 5.90391 30.1735L5.09609 35.5469H0.628906C0.283594 35.5469 0 35.8305 0 36.1781C0 36.5234 0.283594 36.807 0.628906 36.807H33.2187C33.5641 36.807 33.8477 36.5234 33.8477 36.1781C33.8477 35.8305 33.5641 35.5469 33.2187 35.5469H28.75L27.9437 30.1727C29.9398 29.525 31.8156 28.6899 33.5 27.6649C33.5203 27.6539 33.5336 27.6313 33.5336 27.6094V22.9102H36.8883C37.218 22.9102 37.4906 23.1805 37.4906 23.5125V25.1266C37.4906 25.275 37.6102 25.3945 37.7586 25.3945H39.1562C39.3047 25.3945 39.4242 25.275 39.4242 25.1266V23.4547C39.4242 22.2274 38.5234 21.2055 37.35 21.0117ZM8.57734 35.5477C10.7937 33.6789 12.8227 33.9266 16.9242 33.9266C21.0234 33.9266 23.0516 33.6789 25.2687 35.5477H8.57734Z" fill="#704012"/>
<path fill-rule="evenodd" clip-rule="evenodd" d="M0.314453 22.218V7.42891C0.314453 7.40469 0.325391 7.38438 0.345703 7.3711C7.94414 2.75391 19.4262 1.96329 28.3535 5.00157V19.1656C28.3535 21.6789 26.4715 23.7656 23.9684 24.0219C15.9621 24.8398 7.18633 24.2375 0.314453 22.218Z" fill="#96581B"/>
<path fill-rule="evenodd" clip-rule="evenodd" d="M4.25391 5.45547C5.05781 5.13906 5.88594 4.85781 6.73438 4.60938V30.4297C5.88594 30.182 5.05781 29.8984 4.25391 29.5836V5.45547ZM27.1102 4.61016C27.9586 4.85781 28.7891 5.13906 29.593 5.45625V29.5836C28.7891 29.8984 27.9586 30.1812 27.1102 30.4297V4.61016Z" fill="#5A3926"/>
<path fill-rule="evenodd" clip-rule="evenodd" d="M4.25391 5.45547C5.05781 5.13906 5.88594 4.85781 6.73438 4.60938V23.6211C5.89297 23.4906 5.06484 23.3445 4.25391 23.1805V5.45547ZM28.3523 5.00156V19.1656C28.3523 20.4172 27.8875 21.5594 27.1102 22.4258V4.61016C27.5312 4.73203 27.9453 4.8625 28.3523 5.00156Z" fill="#5D372A"/>
<path fill-rule="evenodd" clip-rule="evenodd" d="M4.25391 5.45548C4.35547 5.41329 4.46016 5.37345 4.56406 5.33595V23.243C4.46016 23.2227 4.35625 23.2031 4.25391 23.1813V5.45548ZM6.42422 4.70314C6.52578 4.66954 6.63047 4.63907 6.73438 4.61017V23.6219C6.63047 23.6039 6.52656 23.5883 6.42422 23.5735V4.70314Z" fill="#543226"/>
<path fill-rule="evenodd" clip-rule="evenodd" d="M27.9434 30.1727C21.0738 32.4024 12.7738 32.4024 5.9043 30.1727L5.68945 31.5922C11.6137 33.4656 18.4988 33.7625 24.7262 32.4828C25.8582 32.25 26.9363 33.0031 27.1066 34.1438L27.3191 35.5477H28.7496L27.9434 30.1727Z" fill="#653A10"/>
<path fill-rule="evenodd" clip-rule="evenodd" d="M33.5332 20.9774V22.9109H36.8879C37.2176 22.9109 37.4902 23.1813 37.4902 23.5133V25.1274C37.4902 25.2758 37.6098 25.3953 37.7582 25.3953H39.1559C39.3043 25.3953 39.4238 25.2758 39.4238 25.1274V23.4555C39.4238 22.0891 38.3098 20.9774 36.9457 20.9774H33.5332Z" fill="#E2DFDC"/>
<path fill-rule="evenodd" clip-rule="evenodd" d="M33.533 22.9109H36.8877C37.2174 22.9109 37.49 23.1813 37.49 23.5133V25.1274C37.49 25.2758 37.6096 25.3953 37.758 25.3953H38.1213V23.5133C38.1213 22.8336 37.5658 22.2774 36.8877 22.2774H34.4846C34.3072 22.2774 34.1635 22.1336 34.1635 21.9563V20.9774H33.5322V22.9109H33.533Z" fill="#DAD7D5"/>
<path d="M35.2404 19.432C34.8857 19.432 34.6006 19.1461 34.6006 18.7922C34.6006 18.4375 34.8865 18.1523 35.2404 18.1523H36.7154H38.1928C38.5451 18.1523 38.8326 18.4383 38.8326 18.7922C38.8326 19.1469 38.5443 19.432 38.1928 19.432H37.3561V20.9781V21.0117C37.2232 20.9898 37.0857 20.9781 36.9467 20.9781H36.0764V19.432H35.2404Z" fill="#DAD7D5"/>
<path d="M37.3551 19.432V20.9781V21.0117C37.2223 20.9898 37.0848 20.9781 36.9457 20.9781H36.4941V19.8351C36.4941 19.614 36.6754 19.432 36.8973 19.432H37.3551Z" fill="#E2DFDC"/>
<path fill-rule="evenodd" clip-rule="evenodd" d="M38.3739 27.9359C38.095 29.3203 37.1848 29.7984 36.9591 30.9812C36.7419 32.1219 37.3223 33.3664 38.4559 33.3664C39.5919 33.3664 40.17 32.1219 39.9551 30.9812C39.7294 29.7984 38.8192 29.3203 38.538 27.9359C38.5309 27.8961 38.4981 27.8672 38.4559 27.8672C38.4161 27.8672 38.3825 27.8961 38.3739 27.9359Z" fill="#FCDD2E"/>
<path d="M37.5277 31.0891C37.5457 31.0024 37.6277 30.9453 37.716 30.961C37.8027 30.9789 37.8574 31.061 37.8426 31.1469C37.7894 31.4344 37.8222 31.8047 37.9379 32.0727C37.973 32.1547 37.9379 32.2477 37.8558 32.2828C37.7762 32.318 37.6808 32.2805 37.6457 32.2008C37.5035 31.8758 37.4637 31.4375 37.5277 31.0891ZM37.991 32.4688C38.0926 32.2828 38.3918 32.4422 38.2926 32.6305C38.1902 32.8188 37.8887 32.6555 37.991 32.4688Z" fill="#FCEB84"/>
<path fill-rule="evenodd" clip-rule="evenodd" d="M0.314453 24.5633V23.2258C1.52148 23.607 2.83867 23.9477 4.2543 24.2399V25.5445C2.85039 25.2609 1.53008 24.9305 0.314453 24.5633ZM0.314453 20.457V19.1727C1.52383 19.3078 2.84102 19.4297 4.2543 19.5336V20.8133C2.84805 20.7117 1.52773 20.5922 0.314453 20.457ZM0.314453 15.8664V14.582C1.52773 14.4469 2.84805 14.3274 4.2543 14.2234V15.5055C2.84102 15.6094 1.52383 15.7313 0.314453 15.8664ZM0.314453 11.8141V10.4766C1.53008 10.1086 2.85039 9.77892 4.2543 9.49532V10.8C2.83867 11.0922 1.52148 11.4328 0.314453 11.8141ZM33.5332 10.4766V11.8141C32.3262 11.4328 31.0066 11.0922 29.5934 10.8V9.49532C30.9973 9.77892 32.3145 10.1086 33.5332 10.4766ZM33.5332 14.582V15.8664C32.3238 15.7313 31.0043 15.6094 29.5934 15.5055V14.2234C30.9996 14.3274 32.3168 14.4469 33.5332 14.582ZM33.5332 19.1727V20.457C32.3176 20.5922 30.9996 20.7117 29.5934 20.8133V19.5336C31.0035 19.4297 32.3238 19.3078 33.5332 19.1727ZM33.5332 23.2258V24.5633C32.3152 24.9313 30.9973 25.2609 29.5934 25.5445V24.2399C31.0059 23.9477 32.3262 23.6063 33.5332 23.2258ZM6.73398 14.0664C9.85664 13.8914 13.3066 13.7938 16.923 13.7938C20.5395 13.7938 23.9879 13.8914 27.1098 14.0664V15.3445C24.016 15.1719 20.5676 15.0742 16.923 15.0742C13.2785 15.0742 9.82773 15.1719 6.73398 15.3445V14.0664ZM27.1105 25.9828C23.9926 26.4609 20.5441 26.7266 16.9238 26.7266C16.5691 26.7266 16.284 26.4383 16.284 26.0867C16.284 25.732 16.5699 25.4469 16.9238 25.4469C20.5621 25.4469 24.0129 25.1766 27.1105 24.6899V25.9828ZM14.1887 25.3961C14.541 25.4094 14.8152 25.7039 14.8043 26.0563C14.791 26.4086 14.4965 26.6852 14.1441 26.6719C11.5309 26.5719 9.03945 26.3352 6.73398 25.9828V24.6899C9.05117 25.0524 11.5574 25.2961 14.1887 25.3961ZM6.73398 9.05704C9.85195 8.57892 13.3004 8.31329 16.923 8.31329C17.2754 8.31329 17.5629 8.59923 17.5629 8.95314C17.5629 9.30782 17.2746 9.59298 16.923 9.59298C13.2824 9.59298 9.83164 9.86329 6.73398 10.35V9.05704ZM19.6566 9.64376C19.3043 9.63048 19.0301 9.33361 19.0434 8.98126C19.0543 8.62892 19.3512 8.3547 19.7035 8.36798C22.3168 8.46798 24.8059 8.7047 27.1113 9.05704V10.35C24.7941 9.98673 22.2871 9.74298 19.6566 9.64376ZM27.1105 20.9734C23.9879 21.1484 20.5402 21.2438 16.9238 21.2438C13.3074 21.2438 9.85742 21.1484 6.73477 20.9734V19.6953C9.82852 19.868 13.2785 19.9633 16.9238 19.9633C20.5691 19.9633 24.0168 19.868 27.1105 19.6953V20.9734Z" fill="#572800"/>
<path fill-rule="evenodd" clip-rule="evenodd" d="M0.628906 35.5477H33.2188C33.5641 35.5477 33.8477 35.8313 33.8477 36.1789C33.8477 36.5242 33.5641 36.8078 33.2188 36.8078H0.628906C0.283594 36.8078 0 36.5242 0 36.1789C0 35.8305 0.283594 35.5477 0.628906 35.5477Z" fill="#767171"/>
<path fill-rule="evenodd" clip-rule="evenodd" d="M27.4238 4.70314V22.043C27.3262 22.1758 27.2223 22.3039 27.1113 22.4258V4.61017C27.2152 4.63829 27.3199 4.66954 27.4238 4.70314Z" fill="#543226"/>
<path d="M27.1113 30.4297C27.2152 30.4008 27.3191 30.3695 27.4238 30.3367V22.0399C27.3262 22.1742 27.2223 22.3039 27.1113 22.4274V30.4297Z" fill="#513322"/>
<path d="M29.2812 5.33594V29.7031C29.3852 29.6633 29.4891 29.6234 29.5938 29.5836V5.45547C29.4891 5.41406 29.3852 5.37422 29.2812 5.33594Z" fill="#513322"/>
<path d="M4.25488 29.5836C4.35645 29.6234 4.46113 29.6633 4.56504 29.7031V23.2429C4.46113 23.2226 4.35801 23.2023 4.25488 23.182V29.5836Z" fill="#513322"/>
<path d="M6.4248 30.3367C6.52637 30.3703 6.63105 30.4008 6.73496 30.4297V23.6203C6.63184 23.6047 6.52793 23.5891 6.4248 23.5719V30.3367Z" fill="#513322"/>
</svg>
