<svg width="37" height="40" viewBox="0 0 37 40" fill="none" xmlns="http://www.w3.org/2000/svg">
<path d="M33.8564 14.8702C33.409 14.2158 32.8967 13.6178 32.326 13.0879C33.9123 12.3257 35.2419 11.1391 36.2458 9.67037C36.5347 9.24764 36.3781 8.66327 35.9165 8.44163C35.0073 8.00531 34.0527 7.70101 33.0767 7.54242C34.2184 6.01775 34.855 4.20128 35.0008 2.2906C35.0398 1.77998 34.6119 1.35217 34.1013 1.391C32.1904 1.53654 30.3739 2.1731 28.8491 3.31481C28.6904 2.33888 28.3862 1.3842 27.9499 0.474989C27.7283 0.0133528 27.144 -0.143286 26.7212 0.145695C25.2524 1.14959 24.0659 2.47919 23.3036 4.06542C22.7738 3.4948 22.1757 2.98246 21.5214 2.53505C21.0986 2.24599 20.5143 2.40255 20.2926 2.86418C19.2698 4.99448 18.9651 7.37344 19.587 9.69443C20.0529 11.433 20.9854 12.94 22.244 14.1474C23.4514 15.4061 24.9584 16.3386 26.697 16.8044C29.018 17.4263 31.3971 17.1216 33.5273 16.0988C33.9888 15.8773 34.1454 15.2929 33.8564 14.8702Z" fill="#A3E440"/>
<path d="M33.1539 7.43597C32.5485 7.17073 31.924 6.96417 31.2888 6.81987C31.0043 6.75464 30.8721 6.42831 31.0313 6.18276C31.9174 4.81878 32.4312 3.25362 32.5814 1.61604C33.0784 1.50472 33.5861 1.43042 34.101 1.39089C34.6117 1.35198 35.0399 1.78011 35.0003 2.29018C34.8579 4.15714 34.2466 5.9337 33.1539 7.43597Z" fill="#99D53B"/>
<path d="M33.5273 16.0991C31.397 17.1218 29.0182 17.4266 26.6969 16.8044C26.0454 16.6296 25.4269 16.3895 24.8438 16.0913C26.9867 16.5302 29.1577 16.1985 31.1192 15.2573C31.5815 15.0358 31.7407 14.4502 31.4515 14.0269C31.1384 13.5689 30.7935 13.1389 30.4192 12.7408C30.1857 12.4918 30.2474 12.0875 30.5431 11.9164C31.8556 11.1608 32.9693 10.101 33.8387 8.83046C34.1123 8.42992 33.9896 7.88446 33.5842 7.63837C34.3835 7.81141 35.1655 8.08086 35.9169 8.44187C36.3779 8.66343 36.5348 9.2478 36.2462 9.67053C35.2421 11.1393 33.9129 12.326 32.3263 13.0876C32.8969 13.6175 33.4094 14.2163 33.8566 14.8706C34.1458 15.2927 33.989 15.877 33.5273 16.0991Z" fill="#99D53B"/>
<path d="M31.49 9.56379C30.3918 9.59504 29.0087 9.36122 28.0765 9.16872L31.3821 5.86312C31.6178 5.62735 31.6178 5.24516 31.3821 5.00938C31.1463 4.77376 30.7641 4.77376 30.5283 5.00938L27.2231 8.31459C27.0307 7.38217 26.797 5.9993 26.8281 4.90173C26.8376 4.56845 26.5752 4.29064 26.2419 4.28119C25.912 4.27314 25.6308 4.53423 25.6213 4.86743C25.5757 6.47413 26.0195 8.52724 26.2102 9.32747L24.4902 11.0475C24.1289 10.1132 23.5533 8.45701 23.1632 6.50663C23.0979 6.17984 22.78 5.96789 22.4529 6.03312C22.1261 6.09851 21.914 6.41648 21.9794 6.74343C22.4708 9.20028 23.2264 11.1725 23.5605 11.9772L21.8174 13.7203C21.5817 13.9561 21.5817 14.3383 21.8174 14.5741C21.9353 14.6919 22.0898 14.7509 22.2443 14.7509C22.3987 14.7509 22.5533 14.6919 22.6711 14.5741L24.4141 12.8311C25.2185 13.1651 27.191 13.9209 29.6485 14.4124C29.6884 14.4205 29.7283 14.4242 29.7675 14.4242C30.0494 14.4242 30.3014 14.2259 30.3587 13.9389C30.4241 13.612 30.2121 13.294 29.8852 13.2286C27.9345 12.8385 26.278 12.2628 25.3438 11.9014L27.0638 10.1814C27.8262 10.3631 29.7225 10.7737 31.2886 10.7737C31.3681 10.7737 31.4468 10.7727 31.5244 10.7705C31.8577 10.761 32.1201 10.4832 32.1107 10.15C32.1012 9.81668 31.8253 9.55582 31.49 9.56379Z" fill="#82B732"/>
<path d="M8.45257 40C10.8335 40 12.7635 38.0699 12.7635 35.689C12.7635 33.3081 10.8335 31.3781 8.45257 31.3781C6.07169 31.3781 4.1416 33.3081 4.1416 35.689C4.1416 38.0699 6.07169 40 8.45257 40Z" fill="#804D9E"/>
<path d="M12.763 35.6894C12.763 38.0696 10.8333 39.9996 8.45256 39.9996C7.87632 39.9996 7.32648 39.8865 6.82422 39.6813C8.39788 39.0383 9.50638 37.4933 9.50638 35.6894C9.50638 33.8847 8.39795 32.3398 6.82422 31.6966C7.32648 31.4915 7.87624 31.3784 8.45256 31.3784C10.8333 31.3784 12.763 33.3084 12.763 35.6894Z" fill="#683983"/>
<path d="M6.04437 33.0338C8.42526 33.0338 10.3553 31.1037 10.3553 28.7228C10.3553 26.342 8.42526 24.4119 6.04437 24.4119C3.66349 24.4119 1.7334 26.342 1.7334 28.7228C1.7334 31.1037 3.66349 33.0338 6.04437 33.0338Z" fill="#BC83DF"/>
<path d="M10.3548 28.7232C10.3548 31.1034 8.42512 33.0334 6.04436 33.0334C5.46811 33.0334 4.91828 32.9202 4.41602 32.7151C5.98967 32.072 7.09818 30.527 7.09818 28.7232C7.09818 26.9185 5.98975 25.3735 4.41602 24.7304C4.91828 24.5252 5.46804 24.4121 6.04436 24.4121C8.42512 24.4121 10.3548 26.3422 10.3548 28.7232Z" fill="#AE6AD8"/>
<path d="M6.21429 25.9008C8.59518 25.9008 10.5253 23.9707 10.5253 21.5898C10.5253 19.2089 8.59518 17.2788 6.21429 17.2788C3.83341 17.2788 1.90332 19.2089 1.90332 21.5898C1.90332 23.9707 3.83341 25.9008 6.21429 25.9008Z" fill="#975BBB"/>
<path d="M10.5247 21.5902C10.5247 23.9704 8.59504 25.9004 6.21428 25.9004C5.63804 25.9004 5.0882 25.7872 4.58594 25.5821C6.15959 24.939 7.2681 23.3941 7.2681 21.5902C7.2681 19.7855 6.15967 18.2405 4.58594 17.5974C5.0882 17.3922 5.63796 17.2791 6.21428 17.2791C8.59504 17.2791 10.5247 19.2092 10.5247 21.5902Z" fill="#804D9E"/>
<path d="M19.6674 31.8652C22.0483 31.8652 23.9784 29.9351 23.9784 27.5542C23.9784 25.1733 22.0483 23.2432 19.6674 23.2432C17.2865 23.2432 15.3564 25.1733 15.3564 27.5542C15.3564 29.9351 17.2865 31.8652 19.6674 31.8652Z" fill="#683983"/>
<path d="M23.9778 27.5545C23.9778 29.9347 22.0482 31.8647 19.6674 31.8647C19.0912 31.8647 18.5413 31.7516 18.0391 31.5464C19.6127 30.9034 20.7211 29.3583 20.7211 27.5545C20.7211 25.7498 19.6127 24.2049 18.0391 23.5617C18.5413 23.3566 19.0911 23.2435 19.6674 23.2435C22.0482 23.2435 23.9778 25.1735 23.9778 27.5545Z" fill="#5B3573"/>
<path d="M13.0746 35.9238C15.4555 35.9238 17.3856 33.9937 17.3856 31.6129C17.3856 29.232 15.4555 27.3019 13.0746 27.3019C10.6938 27.3019 8.76367 29.232 8.76367 31.6129C8.76367 33.9937 10.6938 35.9238 13.0746 35.9238Z" fill="#975BBB"/>
<path d="M17.3851 31.6132C17.3851 33.9934 15.4554 35.9234 13.0746 35.9234C12.4984 35.9234 11.9485 35.8102 11.4463 35.6051C13.0199 34.962 14.1284 33.4171 14.1284 31.6132C14.1284 29.8085 13.0199 28.2635 11.4463 27.6204C11.9485 27.4152 12.4983 27.3021 13.0746 27.3021C15.4554 27.3022 17.3851 29.2322 17.3851 31.6132Z" fill="#804D9E"/>
<path d="M12.7631 29.0619C15.144 29.0619 17.0741 27.1318 17.0741 24.7509C17.0741 22.37 15.144 20.4399 12.7631 20.4399C10.3822 20.4399 8.45215 22.37 8.45215 24.7509C8.45215 27.1318 10.3822 29.0619 12.7631 29.0619Z" fill="#CA9AE5"/>
<path d="M17.0735 24.7513C17.0735 27.1315 15.1439 29.0615 12.7631 29.0615C12.1869 29.0615 11.637 28.9484 11.1348 28.7432C12.7084 28.1002 13.8169 26.5552 13.8169 24.7513C13.8169 22.9466 12.7085 21.4016 11.1348 20.7585C11.637 20.5534 12.1868 20.4402 12.7631 20.4402C15.1439 20.4402 17.0735 22.3703 17.0735 24.7513Z" fill="#BC83DF"/>
<path d="M11.4457 21.8287C13.8266 21.8287 15.7567 19.8986 15.7567 17.5177C15.7567 15.1368 13.8266 13.2067 11.4457 13.2067C9.06485 13.2067 7.13477 15.1368 7.13477 17.5177C7.13477 19.8986 9.06485 21.8287 11.4457 21.8287Z" fill="#975BBB"/>
<path d="M15.7562 17.518C15.7562 19.8982 13.8265 21.8282 11.4457 21.8282C10.8695 21.8282 10.3196 21.7151 9.81738 21.5099C11.391 20.8669 12.4995 19.3219 12.4995 17.518C12.4995 15.7134 11.391 14.1684 9.81738 13.5252C10.3196 13.3201 10.8694 13.207 11.4457 13.207C13.8265 13.207 15.7562 15.137 15.7562 17.518Z" fill="#804D9E"/>
<path d="M4.31097 18.5389C6.69186 18.5389 8.62195 16.6089 8.62195 14.228C8.62195 11.8471 6.69186 9.91699 4.31097 9.91699C1.93009 9.91699 0 11.8471 0 14.228C0 16.6089 1.93009 18.5389 4.31097 18.5389Z" fill="#804D9E"/>
<path d="M8.62139 14.2283C8.62139 16.6085 6.69172 18.5385 4.31096 18.5385C3.73472 18.5385 3.18488 18.4254 2.68262 18.2202C4.25627 17.5772 5.36478 16.0322 5.36478 14.2283C5.36478 12.4236 4.25635 10.8786 2.68262 10.2355C3.18488 10.0304 3.73464 9.91724 4.31096 9.91724C6.6918 9.91724 8.62139 11.8473 8.62139 14.2283Z" fill="#683983"/>
<path d="M25.1245 26.8599C27.5053 26.8599 29.4354 24.9298 29.4354 22.5489C29.4354 20.1681 27.5053 18.238 25.1245 18.238C22.7436 18.238 20.8135 20.1681 20.8135 22.5489C20.8135 24.9298 22.7436 26.8599 25.1245 26.8599Z" fill="#AE6AD8"/>
<path d="M29.4349 22.5493C29.4349 24.9295 27.5052 26.8595 25.1244 26.8595C24.5482 26.8595 23.9984 26.7464 23.4961 26.5412C25.0698 25.8982 26.1782 24.3531 26.1782 22.5493C26.1782 20.7447 25.0698 19.1997 23.4961 18.5566C23.9984 18.3514 24.5481 18.2383 25.1244 18.2383C27.5052 18.2384 29.4349 20.1683 29.4349 22.5493Z" fill="#975BBB"/>
<path d="M18.5307 24.5006C20.9116 24.5006 22.8417 22.5705 22.8417 20.1896C22.8417 17.8088 20.9116 15.8787 18.5307 15.8787C16.1498 15.8787 14.2197 17.8088 14.2197 20.1896C14.2197 22.5705 16.1498 24.5006 18.5307 24.5006Z" fill="#AE6AD8"/>
<path d="M22.8411 20.19C22.8411 22.5702 20.9114 24.5002 18.5307 24.5002C17.9544 24.5002 17.4046 24.387 16.9023 24.1819C18.476 23.5388 19.5844 21.9938 19.5844 20.19C19.5844 18.3853 18.476 16.8403 16.9023 16.1972C17.4046 15.992 17.9544 15.8789 18.5307 15.8789C20.9114 15.8789 22.8411 17.809 22.8411 20.19Z" fill="#975BBB"/>
<path d="M10.5561 14.7549C12.937 14.7549 14.8671 12.8249 14.8671 10.444C14.8671 8.06308 12.937 6.133 10.5561 6.133C8.17521 6.133 6.24512 8.06308 6.24512 10.444C6.24512 12.8249 8.17521 14.7549 10.5561 14.7549Z" fill="#BC83DF"/>
<path d="M14.8665 10.4444C14.8665 12.8246 12.9368 14.7545 10.5561 14.7545C9.97983 14.7545 9.43 14.6414 8.92773 14.4363C10.5014 13.7932 11.6098 12.2482 11.6098 10.4444C11.6098 8.63968 10.5014 7.0947 8.92773 6.45158C9.43 6.24642 9.97976 6.1333 10.5561 6.1333C12.9368 6.1333 14.8665 8.06336 14.8665 10.4444Z" fill="#AE6AD8"/>
<path d="M17.0463 17.4529C19.4272 17.4529 21.3573 15.5228 21.3573 13.1419C21.3573 10.761 19.4272 8.83093 17.0463 8.83093C14.6654 8.83093 12.7354 10.761 12.7354 13.1419C12.7354 15.5228 14.6654 17.4529 17.0463 17.4529Z" fill="#CA9AE5"/>
<path d="M21.3567 13.1422C21.3567 15.5224 19.4271 17.4524 17.0463 17.4524C16.4701 17.4524 15.9202 17.3393 15.418 17.1341C16.9916 16.4911 18.1001 14.9461 18.1001 13.1422C18.1001 11.3376 16.9916 9.79257 15.418 9.14945C15.9202 8.9443 16.47 8.83118 17.0463 8.83118C19.4271 8.83118 21.3567 10.7612 21.3567 13.1422Z" fill="#BC83DF"/>
<path d="M24.1078 20.0385C26.4887 20.0385 28.4188 18.1084 28.4188 15.7275C28.4188 13.3467 26.4887 11.4166 24.1078 11.4166C21.727 11.4166 19.7969 13.3467 19.7969 15.7275C19.7969 18.1084 21.727 20.0385 24.1078 20.0385Z" fill="#804D9E"/>
<path d="M28.4183 15.7279C28.4183 18.1081 26.4886 20.0381 24.1078 20.0381C23.5316 20.0381 22.9818 19.925 22.4795 19.7198C24.0531 19.0768 25.1617 17.5318 25.1617 15.7279C25.1617 13.9233 24.0532 12.3783 22.4795 11.7351C22.9818 11.53 23.5315 11.4169 24.1078 11.4169C26.4886 11.4169 28.4183 13.3469 28.4183 15.7279Z" fill="#683983"/>
</svg>
