<svg width="40" height="40" viewBox="0 0 40 40" fill="none" xmlns="http://www.w3.org/2000/svg">
<path d="M33.125 17.5L20 21.875L6.875 17.5L14.2625 5.68123C15.5 3.69999 17.6688 2.5 20 2.5C21.1625 2.5 22.2875 2.79999 23.2812 3.34999C24.2688 3.89374 25.1187 4.6875 25.7375 5.68123L33.125 17.5Z" fill="#EEEEEE"/>
<path d="M25.7374 5.68123C25.1186 4.6875 24.2686 3.89374 23.2811 3.34999C22.2873 2.79999 21.1624 2.5 19.9999 2.5C19.7891 2.5 19.5816 2.52079 19.374 2.54009C20.3128 2.62756 21.2169 2.8994 22.0311 3.34999C23.0186 3.89374 23.8686 4.6875 24.4874 5.68123L31.8749 17.5H33.1249L25.7374 5.68123Z" fill="#DDDDDD"/>
<path d="M15.625 15.625C15.9702 15.625 16.25 15.3452 16.25 15C16.25 14.6548 15.9702 14.375 15.625 14.375C15.2798 14.375 15 14.6548 15 15C15 15.3452 15.2798 15.625 15.625 15.625Z" fill="#DDDDDD"/>
<path d="M18.125 15C18.4702 15 18.75 14.7202 18.75 14.375C18.75 14.0298 18.4702 13.75 18.125 13.75C17.7798 13.75 17.5 14.0298 17.5 14.375C17.5 14.7202 17.7798 15 18.125 15Z" fill="#DDDDDD"/>
<path d="M15 10.625C15.3452 10.625 15.625 10.3452 15.625 10C15.625 9.65482 15.3452 9.375 15 9.375C14.6548 9.375 14.375 9.65482 14.375 10C14.375 10.3452 14.6548 10.625 15 10.625Z" fill="#DDDDDD"/>
<path d="M25 15C25.3452 15 25.625 14.7202 25.625 14.375C25.625 14.0298 25.3452 13.75 25 13.75C24.6548 13.75 24.375 14.0298 24.375 14.375C24.375 14.7202 24.6548 15 25 15Z" fill="#DDDDDD"/>
<path d="M28.75 15.625C29.0952 15.625 29.375 15.3452 29.375 15C29.375 14.6548 29.0952 14.375 28.75 14.375C28.4048 14.375 28.125 14.6548 28.125 15C28.125 15.3452 28.4048 15.625 28.75 15.625Z" fill="#DDDDDD"/>
<path d="M26.25 13.125C26.5952 13.125 26.875 12.8452 26.875 12.5C26.875 12.1548 26.5952 11.875 26.25 11.875C25.9048 11.875 25.625 12.1548 25.625 12.5C25.625 12.8452 25.9048 13.125 26.25 13.125Z" fill="#DDDDDD"/>
<path d="M23.125 11.875C23.4702 11.875 23.75 11.5952 23.75 11.25C23.75 10.9048 23.4702 10.625 23.125 10.625C22.7798 10.625 22.5 10.9048 22.5 11.25C22.5 11.5952 22.7798 11.875 23.125 11.875Z" fill="#DDDDDD"/>
<path d="M34.994 18.8312C34.5565 24.2125 31.494 28.8125 27.144 31.25L19.3753 32.5L12.8565 31.25C8.50651 28.8125 5.44403 24.2125 5.00652 18.8312C4.944 18.1125 5.5315 17.5 6.25652 17.5H33.744C34.469 17.5 35.0565 18.1125 34.994 18.8312Z" fill="#60B8FE"/>
<path d="M34.9941 18.8313C34.5566 24.2125 31.4942 28.8125 27.1441 31.25H12.8567C12.3504 30.9688 11.8691 30.6563 11.4004 30.3125H26.3254C30.6754 27.875 33.7379 23.275 34.1754 17.8938C34.1816 17.7813 34.1754 17.675 34.1504 17.575C34.6754 17.7562 35.0442 18.2562 34.9941 18.8313Z" fill="#44ACF2"/>
<path d="M20 20.625L16.875 22.5V26.25L20 28.125L23.125 26.25V22.5L20 20.625Z" fill="#EEEEEE"/>
<path d="M20 20.625L16.875 22.5L20 24.375V28.125L23.125 26.25V22.5L20 20.625Z" fill="#DDDDDD"/>
<path d="M23.125 22.5L20 24.375L16.875 22.5L20 20.625L23.125 22.5Z" fill="#D1D3D2"/>
<path d="M11.25 15.625C11.5952 15.625 11.875 15.3452 11.875 15C11.875 14.6548 11.5952 14.375 11.25 14.375C10.9048 14.375 10.625 14.6548 10.625 15C10.625 15.3452 10.9048 15.625 11.25 15.625Z" fill="#DDDDDD"/>
<path d="M13.75 13.75C14.0952 13.75 14.375 13.4702 14.375 13.125C14.375 12.7798 14.0952 12.5 13.75 12.5C13.4048 12.5 13.125 12.7798 13.125 13.125C13.125 13.4702 13.4048 13.75 13.75 13.75Z" fill="#DDDDDD"/>
<path d="M18.125 6.25C18.4702 6.25 18.75 5.97018 18.75 5.625C18.75 5.27982 18.4702 5 18.125 5C17.7798 5 17.5 5.27982 17.5 5.625C17.5 5.97018 17.7798 6.25 18.125 6.25Z" fill="#DDDDDD"/>
<path d="M13.5814 31.25H13.3252C13.1752 30.9313 12.9877 30.6313 12.7627 30.3625C13.0752 30.6188 13.3565 30.9187 13.5814 31.25Z" fill="#37A2DD"/>
<path d="M29.3252 33.125C29.3252 33.6437 29.1127 34.1125 28.7752 34.45C28.4377 34.7875 27.969 35 27.4502 35H12.4502C11.4127 35 10.5752 34.1625 10.5752 33.125C10.5752 32.6062 10.7877 32.1375 11.1252 31.8C11.4627 31.4625 11.9315 31.25 12.4502 31.25H27.4502C28.4877 31.25 29.3252 32.0875 29.3252 33.125Z" fill="#7A6D79"/>
<path d="M9.375 37.5C11.7912 37.5 13.75 35.5412 13.75 33.125C13.75 30.7088 11.7912 28.75 9.375 28.75C6.95875 28.75 5 30.7088 5 33.125C5 35.5412 6.95875 37.5 9.375 37.5Z" fill="#FF656F"/>
<path d="M12.1251 29.7498C12.7469 30.5069 13.1249 31.4676 13.1249 32.5C13.1249 34.8686 11.1409 36.875 8.74992 36.875C7.69996 36.875 6.73786 36.5056 5.98438 35.8906C6.78623 36.8728 8.00613 37.5 9.37492 37.5C11.7659 37.5 13.7499 35.4936 13.7499 33.125C13.7499 31.7815 13.1103 30.559 12.1251 29.7498Z" fill="#F75464"/>
<path d="M11.0669 31.4331C10.8228 31.189 10.4272 31.189 10.1831 31.4331L9.375 32.2412L8.56689 31.4331C8.32275 31.189 7.92724 31.189 7.6831 31.4331C7.43897 31.6772 7.43897 32.0728 7.6831 32.3169L8.49121 33.125L7.6831 33.9331C7.43897 34.1772 7.43897 34.5728 7.6831 34.8169C7.80517 34.939 7.96508 35 8.125 35C8.28491 35 8.44482 34.939 8.56689 34.8169L9.375 34.0088L10.1831 34.8169C10.3052 34.939 10.4651 35 10.625 35C10.7849 35 10.9448 34.939 11.0669 34.8169C11.311 34.5728 11.311 34.1772 11.0669 33.9331L10.2588 33.125L11.0669 32.3169C11.311 32.0728 11.311 31.6772 11.0669 31.4331Z" fill="#EEEEEE"/>
<path d="M28.007 31.3432C28.0621 31.5202 28.1002 31.7046 28.1002 31.9C28.1002 32.4187 27.8877 32.8875 27.5502 33.225C27.2127 33.5625 26.744 33.775 26.2252 33.775L14.3751 33.7513L14.3752 33.75C14.3752 32.8188 14.0877 31.9563 13.5814 31.25H13.3252C13.6002 31.8187 13.7502 32.4562 13.7502 33.125C13.7502 33.8 13.6002 34.4312 13.3252 35H27.4502C27.9689 35 28.4377 34.7875 28.7752 34.45C29.1127 34.1125 29.3252 33.6437 29.3252 33.125C29.3252 32.2828 28.7697 31.5809 28.007 31.3432Z" fill="#6D626D"/>
</svg>
