<svg width="40" height="40" viewBox="0 0 40 40" fill="none" xmlns="http://www.w3.org/2000/svg">
<path d="M36.6154 30.55C36.6154 31.15 36.482 31.7667 36.1987 32.3667C35.9154 32.9667 35.5487 33.5334 35.0654 34.0667C34.2487 34.9667 33.3487 35.6167 32.332 36.0334C31.332 36.45 30.2487 36.6667 29.082 36.6667C27.382 36.6667 25.5654 36.2667 23.6487 35.45C21.732 34.6334 19.8154 33.5334 17.9154 32.15C15.9987 30.75 14.182 29.2 12.4487 27.4834C10.732 25.75 9.18203 23.9334 7.7987 22.0334C6.43203 20.1334 5.33203 18.2334 4.53203 16.35C3.73203 14.45 3.33203 12.6334 3.33203 10.9C3.33203 9.76671 3.53203 8.68337 3.93203 7.68337C4.33203 6.66671 4.96536 5.73337 5.8487 4.90004C6.91536 3.85004 8.08203 3.33337 9.31537 3.33337C9.78203 3.33337 10.2487 3.43337 10.6654 3.63337C11.0987 3.83337 11.482 4.13337 11.782 4.56671L15.6487 10.0167C15.9487 10.4334 16.1654 10.8167 16.3154 11.1834C16.4654 11.5334 16.5487 11.8834 16.5487 12.2C16.5487 12.6 16.432 13 16.1987 13.3834C15.982 13.7667 15.6654 14.1667 15.2654 14.5667L13.9987 15.8834C13.8154 16.0667 13.732 16.2834 13.732 16.55C13.732 16.6834 13.7487 16.8 13.782 16.9334C13.832 17.0667 13.882 17.1667 13.9154 17.2667C14.2154 17.8167 14.732 18.5334 15.4654 19.4C16.2154 20.2667 17.0154 21.15 17.882 22.0334C18.782 22.9167 19.6487 23.7334 20.532 24.4834C21.3987 25.2167 22.1154 25.7167 22.682 26.0167C22.7654 26.05 22.8654 26.1 22.982 26.15C23.1154 26.2 23.2487 26.2167 23.3987 26.2167C23.682 26.2167 23.8987 26.1167 24.082 25.9334L25.3487 24.6834C25.7654 24.2667 26.1654 23.95 26.5487 23.75C26.932 23.5167 27.3154 23.4 27.732 23.4C28.0487 23.4 28.382 23.4667 28.7487 23.6167C29.1154 23.7667 29.4987 23.9834 29.9154 24.2667L35.432 28.1834C35.8654 28.4834 36.1654 28.8334 36.3487 29.25C36.5154 29.6667 36.6154 30.0834 36.6154 30.55Z" stroke="#641026" stroke-width="2" stroke-miterlimit="10"/>
<path d="M30.8333 15.0001C30.8333 14.0001 30.05 12.4667 28.8833 11.2167C27.8167 10.0667 26.4 9.16675 25 9.16675" stroke="#641026" stroke-width="2" stroke-linecap="round" stroke-linejoin="round"/>
<path d="M36.6667 15C36.6667 8.55004 31.45 3.33337 25 3.33337" stroke="#641026" stroke-width="2" stroke-linecap="round" stroke-linejoin="round"/>
</svg>
